<svg width="167" height="46" viewBox="0 0 167 46" fill="none" xmlns="http://www.w3.org/2000/svg">
<path d="M64.2031 28.0625H54.6719L52.5312 34H49.4375L58.125 11.25H60.75L69.4531 34H66.375L64.2031 28.0625ZM55.5781 25.5938H63.3125L59.4375 14.9531L55.5781 25.5938ZM75.7031 13V17.0938H78.8594V19.3281H75.7031V29.8125C75.7031 30.4896 75.8438 31 76.125 31.3438C76.4062 31.6771 76.8854 31.8438 77.5625 31.8438C77.8958 31.8438 78.3542 31.7812 78.9375 31.6562V34C78.1771 34.2083 77.4375 34.3125 76.7188 34.3125C75.4271 34.3125 74.4531 33.9219 73.7969 33.1406C73.1406 32.3594 72.8125 31.25 72.8125 29.8125V19.3281H69.7344V17.0938H72.8125V13H75.7031ZM90.4219 19.6875C89.9844 19.6146 89.5104 19.5781 89 19.5781C87.1042 19.5781 85.8177 20.3854 85.1406 22V34H82.25V17.0938H85.0625L85.1094 19.0469C86.0573 17.5365 87.401 16.7812 89.1406 16.7812C89.7031 16.7812 90.1302 16.8542 90.4219 17V19.6875ZM102.906 34C102.74 33.6667 102.604 33.0729 102.5 32.2188C101.156 33.6146 99.5521 34.3125 97.6875 34.3125C96.0208 34.3125 94.651 33.8438 93.5781 32.9062C92.5156 31.9583 91.9844 30.7604 91.9844 29.3125C91.9844 27.5521 92.651 26.1875 93.9844 25.2188C95.3281 24.2396 97.2135 23.75 99.6406 23.75H102.453V22.4219C102.453 21.4115 102.151 20.6094 101.547 20.0156C100.943 19.4115 100.052 19.1094 98.875 19.1094C97.8438 19.1094 96.9792 19.3698 96.2812 19.8906C95.5833 20.4115 95.2344 21.0417 95.2344 21.7812H92.3281C92.3281 20.9375 92.625 20.125 93.2188 19.3438C93.8229 18.5521 94.6354 17.9271 95.6562 17.4688C96.6875 17.0104 97.8177 16.7812 99.0469 16.7812C100.995 16.7812 102.521 17.2708 103.625 18.25C104.729 19.2188 105.302 20.5573 105.344 22.2656V30.0469C105.344 31.599 105.542 32.8333 105.938 33.75V34H102.906ZM98.1094 31.7969C99.0156 31.7969 99.875 31.5625 100.688 31.0938C101.5 30.625 102.089 30.0156 102.453 29.2656V25.7969H100.188C96.6458 25.7969 94.875 26.8333 94.875 28.9062C94.875 29.8125 95.1771 30.5208 95.7812 31.0312C96.3854 31.5417 97.1615 31.7969 98.1094 31.7969ZM100.781 10H104.281L100.094 14.5938H97.7656L100.781 10ZM119.719 29.5156C119.719 28.7344 119.422 28.1302 118.828 27.7031C118.245 27.2656 117.219 26.8906 115.75 26.5781C114.292 26.2656 113.13 25.8906 112.266 25.4531C111.411 25.0156 110.776 24.4948 110.359 23.8906C109.953 23.2865 109.75 22.5677 109.75 21.7344C109.75 20.349 110.333 19.1771 111.5 18.2188C112.677 17.2604 114.177 16.7812 116 16.7812C117.917 16.7812 119.469 17.276 120.656 18.2656C121.854 19.2552 122.453 20.5208 122.453 22.0625H119.547C119.547 21.2708 119.208 20.5885 118.531 20.0156C117.865 19.4427 117.021 19.1562 116 19.1562C114.948 19.1562 114.125 19.3854 113.531 19.8438C112.938 20.3021 112.641 20.901 112.641 21.6406C112.641 22.3385 112.917 22.8646 113.469 23.2188C114.021 23.5729 115.016 23.9115 116.453 24.2344C117.901 24.5573 119.073 24.9427 119.969 25.3906C120.865 25.8385 121.526 26.3802 121.953 27.0156C122.391 27.6406 122.609 28.4062 122.609 29.3125C122.609 30.8229 122.005 32.0365 120.797 32.9531C119.589 33.8594 118.021 34.3125 116.094 34.3125C114.74 34.3125 113.542 34.0729 112.5 33.5938C111.458 33.1146 110.641 32.4479 110.047 31.5938C109.464 30.7292 109.172 29.7969 109.172 28.7969H112.062C112.115 29.7656 112.5 30.5365 113.219 31.1094C113.948 31.6719 114.906 31.9531 116.094 31.9531C117.188 31.9531 118.062 31.7344 118.719 31.2969C119.385 30.849 119.719 30.2552 119.719 29.5156Z" fill="#999595"/>
<path d="M49 37.125H124.188V38.6875H49V37.125Z" fill="#999595"/>
<path d="M7.09197 27.2807C3.87034 25.3361 3.87034 20.6639 7.09196 18.7193L25.4162 7.65894C28.7486 5.64753 33 8.04723 33 11.9396V34.0604C33 37.9528 28.7486 40.3525 25.4162 38.3411L7.09197 27.2807Z" fill="#C4C4C4"/>
</svg>
