<svg width="391" height="324" viewBox="0 0 391 324" fill="none" xmlns="http://www.w3.org/2000/svg">
<path d="M280.055 302.539C181.321 352.059 61.1368 312.162 11.617 213.428C-37.9028 114.693 89.2188 178.346 187.953 128.826C286.688 79.3062 319.647 -64.6339 369.167 34.1007C418.687 132.835 378.79 253.019 280.055 302.539Z" fill="url(#paint0_linear)" fill-opacity="0.5"/>
<path d="M279.831 302.092C181.343 351.488 61.46 311.691 12.064 213.204C5.88475 200.883 2.48172 191.135 1.42207 183.408C0.363775 175.691 1.64689 170.029 4.79433 165.818C7.95064 161.596 13.0398 158.754 19.755 156.807C26.4686 154.861 34.7505 153.824 44.2242 153.17C51.5077 152.667 59.4738 152.392 67.9526 152.098C70.5009 152.01 73.0955 151.92 75.7318 151.822C87.1337 151.398 99.3034 150.82 111.834 149.549C136.894 147.007 163.418 141.691 188.178 129.273C212.936 116.856 233.555 98.5274 251.323 79.5916C260.207 70.123 268.382 60.4977 276.006 51.3799C277.389 49.7258 278.754 48.0886 280.102 46.4722C286.185 39.1748 291.915 32.3008 297.388 26.2019C304.074 18.7511 310.355 12.4814 316.398 8.02872C322.443 3.57454 328.207 0.97096 333.862 0.783891C339.499 0.597439 345.111 2.80946 350.872 8.15863C356.643 13.5172 362.542 22.0074 368.72 34.3249C418.116 132.813 378.319 252.696 279.831 302.092Z" stroke="#C4C4C4" stroke-opacity="0.5"/>
<defs>
<linearGradient id="paint0_linear" x1="399.333" y1="90.2016" x2="41.7836" y2="269.529" gradientUnits="userSpaceOnUse">
<stop stop-color="#AB3828"/>
<stop offset="1" stop-color="#C4C4C4" stop-opacity="0"/>
</linearGradient>
</defs>
</svg>
