<svg width="167" height="46" viewBox="0 0 167 46" fill="none" xmlns="http://www.w3.org/2000/svg">
<path d="M10.1719 30.0156L16.6719 11.25H19.9531L11.5156 34H8.85938L0.4375 11.25H3.70312L10.1719 30.0156ZM28.8906 34.3125C26.599 34.3125 24.7344 33.5625 23.2969 32.0625C21.8594 30.5521 21.1406 28.5365 21.1406 26.0156V25.4844C21.1406 23.8073 21.4583 22.3125 22.0938 21C22.7396 19.6771 23.6354 18.6458 24.7812 17.9062C25.9375 17.1562 27.1875 16.7812 28.5312 16.7812C30.7292 16.7812 32.4375 17.5052 33.6562 18.9531C34.875 20.401 35.4844 22.474 35.4844 25.1719V26.375H24.0312C24.0729 28.0417 24.5573 29.3906 25.4844 30.4219C26.4219 31.4427 27.6094 31.9531 29.0469 31.9531C30.0677 31.9531 30.9323 31.7448 31.6406 31.3281C32.349 30.9115 32.9688 30.3594 33.5 29.6719L35.2656 31.0469C33.849 33.224 31.724 34.3125 28.8906 34.3125ZM28.5312 19.1562C27.3646 19.1562 26.3854 19.5833 25.5938 20.4375C24.8021 21.2812 24.3125 22.4688 24.125 24H32.5938V23.7812C32.5104 22.3125 32.1146 21.1771 31.4062 20.375C30.6979 19.5625 29.7396 19.1562 28.5312 19.1562ZM47.0156 19.6875C46.5781 19.6146 46.1042 19.5781 45.5938 19.5781C43.6979 19.5781 42.4115 20.3854 41.7344 22V34H38.8438V17.0938H41.6562L41.7031 19.0469C42.651 17.5365 43.9948 16.7812 45.7344 16.7812C46.2969 16.7812 46.724 16.8542 47.0156 17V19.6875ZM61.9531 11.25L69.3906 29.8125L76.8281 11.25H80.7188V34H77.7188V25.1406L78 15.5781L70.5312 34H68.2344L60.7812 15.625L61.0781 25.1406V34H58.0781V11.25H61.9531ZM96 34C95.8333 33.6667 95.6979 33.0729 95.5938 32.2188C94.25 33.6146 92.6458 34.3125 90.7812 34.3125C89.1146 34.3125 87.7448 33.8438 86.6719 32.9062C85.6094 31.9583 85.0781 30.7604 85.0781 29.3125C85.0781 27.5521 85.7448 26.1875 87.0781 25.2188C88.4219 24.2396 90.3073 23.75 92.7344 23.75H95.5469V22.4219C95.5469 21.4115 95.2448 20.6094 94.6406 20.0156C94.0365 19.4115 93.1458 19.1094 91.9688 19.1094C90.9375 19.1094 90.0729 19.3698 89.375 19.8906C88.6771 20.4115 88.3281 21.0417 88.3281 21.7812H85.4219C85.4219 20.9375 85.7188 20.125 86.3125 19.3438C86.9167 18.5521 87.7292 17.9271 88.75 17.4688C89.7812 17.0104 90.9115 16.7812 92.1406 16.7812C94.0885 16.7812 95.6146 17.2708 96.7188 18.25C97.8229 19.2188 98.3958 20.5573 98.4375 22.2656V30.0469C98.4375 31.599 98.6354 32.8333 99.0312 33.75V34H96ZM91.2031 31.7969C92.1094 31.7969 92.9688 31.5625 93.7812 31.0938C94.5938 30.625 95.1823 30.0156 95.5469 29.2656V25.7969H93.2812C89.7396 25.7969 87.9688 26.8333 87.9688 28.9062C87.9688 29.8125 88.2708 30.5208 88.875 31.0312C89.4792 31.5417 90.2552 31.7969 91.2031 31.7969ZM93.875 10H97.375L93.1875 14.5938H90.8594L93.875 10ZM112.812 29.5156C112.812 28.7344 112.516 28.1302 111.922 27.7031C111.339 27.2656 110.312 26.8906 108.844 26.5781C107.385 26.2656 106.224 25.8906 105.359 25.4531C104.505 25.0156 103.87 24.4948 103.453 23.8906C103.047 23.2865 102.844 22.5677 102.844 21.7344C102.844 20.349 103.427 19.1771 104.594 18.2188C105.771 17.2604 107.271 16.7812 109.094 16.7812C111.01 16.7812 112.562 17.276 113.75 18.2656C114.948 19.2552 115.547 20.5208 115.547 22.0625H112.641C112.641 21.2708 112.302 20.5885 111.625 20.0156C110.958 19.4427 110.115 19.1562 109.094 19.1562C108.042 19.1562 107.219 19.3854 106.625 19.8438C106.031 20.3021 105.734 20.901 105.734 21.6406C105.734 22.3385 106.01 22.8646 106.562 23.2188C107.115 23.5729 108.109 23.9115 109.547 24.2344C110.995 24.5573 112.167 24.9427 113.062 25.3906C113.958 25.8385 114.62 26.3802 115.047 27.0156C115.484 27.6406 115.703 28.4062 115.703 29.3125C115.703 30.8229 115.099 32.0365 113.891 32.9531C112.682 33.8594 111.115 34.3125 109.188 34.3125C107.833 34.3125 106.635 34.0729 105.594 33.5938C104.552 33.1146 103.734 32.4479 103.141 31.5938C102.557 30.7292 102.266 29.7969 102.266 28.7969H105.156C105.208 29.7656 105.594 30.5365 106.312 31.1094C107.042 31.6719 108 31.9531 109.188 31.9531C110.281 31.9531 111.156 31.7344 111.812 31.2969C112.479 30.849 112.812 30.2552 112.812 29.5156Z" fill="#999595"/>
<path d="M0 37.125H117.281V38.6875H0V37.125Z" fill="#999595"/>
<path d="M159.908 18.7193C163.13 20.6639 163.13 25.3361 159.908 27.2807L141.584 38.3411C138.251 40.3525 134 37.9528 134 34.0604V11.9396C134 8.04724 138.251 5.64753 141.584 7.65894L159.908 18.7193Z" fill="#C4C4C4"/>
</svg>
