<svg width="470" height="406" viewBox="0 0 470 406" fill="none" xmlns="http://www.w3.org/2000/svg">
<path d="M177.168 92.7976C275.016 41.5468 395.883 79.3208 447.134 177.168C498.385 275.015 370.162 213.611 272.315 264.862C174.468 316.113 144.049 460.611 92.7978 362.764C41.547 264.916 79.3209 144.048 177.168 92.7976Z" fill="url(#paint0_linear)" fill-opacity="0.5"/>
<path d="M177.4 93.2406C275.003 42.1179 395.569 79.7974 446.691 177.4C453.087 189.61 456.661 199.296 457.856 207.004C459.05 214.701 457.867 220.385 454.794 224.65C451.713 228.927 446.674 231.858 439.995 233.923C433.316 235.988 425.054 237.17 415.593 237.991C408.32 238.622 400.36 239.037 391.887 239.48C389.341 239.613 386.748 239.749 384.114 239.893C372.722 240.518 360.564 241.31 348.058 242.802C323.047 245.785 296.62 251.567 272.083 264.419C247.547 277.27 227.254 295.959 209.823 315.205C201.106 324.828 193.102 334.596 185.64 343.847C184.286 345.525 182.95 347.186 181.631 348.826C175.678 356.229 170.07 363.203 164.705 369.397C158.151 376.965 151.981 383.344 146.017 387.902C140.052 392.462 134.335 395.167 128.684 395.454C123.051 395.739 117.4 393.626 111.547 388.38C105.682 383.123 99.6345 374.738 93.2408 362.532C42.1181 264.929 79.7975 144.363 177.4 93.2406Z" stroke="#C4C4C4" stroke-opacity="0.5"/>
<defs>
<linearGradient id="paint0_linear" x1="92.7979" y1="362.764" x2="447.134" y2="177.168" gradientUnits="userSpaceOnUse">
<stop stop-color="#71AB28"/>
<stop offset="1" stop-color="#C4C4C4" stop-opacity="0"/>
</linearGradient>
</defs>
</svg>
