<svg width="384" height="429" viewBox="0 0 384 429" fill="none" xmlns="http://www.w3.org/2000/svg">
<circle cx="190" cy="225" r="190" fill="url(#paint0_linear)" fill-opacity="0.25"/>
<g filter="url(#filter0_d)">
<path d="M45 60.9351H351V402C351 404.761 348.761 407 346 407H50C47.2386 407 45 404.761 45 402V60.9351Z" fill="#F0F0F0"/>
</g>
<g filter="url(#filter1_d)">
<path d="M119.635 22V9.22H120.553V21.172H128.185V22H119.635ZM129.824 10.516V8.86H130.724V10.516H129.824ZM129.824 22V12.64H130.724V22H129.824ZM136.502 22.18C135.758 22.18 135.068 22.054 134.432 21.802C133.796 21.55 133.238 21.166 132.758 20.65L133.172 20.02C133.676 20.512 134.192 20.872 134.72 21.1C135.26 21.316 135.842 21.424 136.466 21.424C137.258 21.424 137.906 21.256 138.41 20.92C138.914 20.584 139.166 20.116 139.166 19.516C139.166 19.108 139.046 18.796 138.806 18.58C138.578 18.364 138.242 18.184 137.798 18.04C137.366 17.896 136.838 17.746 136.214 17.59C135.578 17.422 135.044 17.248 134.612 17.068C134.18 16.888 133.85 16.654 133.622 16.366C133.406 16.078 133.298 15.688 133.298 15.196C133.298 14.584 133.448 14.08 133.748 13.684C134.06 13.276 134.474 12.976 134.99 12.784C135.518 12.58 136.1 12.478 136.736 12.478C137.468 12.478 138.104 12.598 138.644 12.838C139.196 13.078 139.616 13.396 139.904 13.792L139.418 14.368C139.13 13.996 138.74 13.714 138.248 13.522C137.756 13.33 137.228 13.234 136.664 13.234C136.22 13.234 135.806 13.294 135.422 13.414C135.05 13.534 134.744 13.732 134.504 14.008C134.276 14.272 134.162 14.632 134.162 15.088C134.162 15.448 134.246 15.73 134.414 15.934C134.582 16.138 134.84 16.306 135.188 16.438C135.536 16.558 135.974 16.69 136.502 16.834C137.234 17.014 137.864 17.2 138.392 17.392C138.92 17.584 139.328 17.836 139.616 18.148C139.904 18.448 140.048 18.874 140.048 19.426C140.048 20.278 139.724 20.95 139.076 21.442C138.428 21.934 137.57 22.18 136.502 22.18ZM146.34 21.55C146.256 21.598 146.034 21.706 145.674 21.874C145.314 22.03 144.882 22.108 144.378 22.108C143.886 22.108 143.454 21.964 143.082 21.676C142.722 21.388 142.542 20.974 142.542 20.434V13.378H141.228V12.64H142.542V9.436H143.442V12.64H145.62V13.378H143.442V20.218C143.466 20.566 143.592 20.83 143.82 21.01C144.048 21.178 144.312 21.262 144.612 21.262C144.984 21.262 145.308 21.202 145.584 21.082C145.86 20.95 146.022 20.866 146.07 20.83L146.34 21.55ZM147.155 19.3C147.155 18.748 147.317 18.262 147.641 17.842C147.977 17.422 148.439 17.098 149.027 16.87C149.627 16.63 150.311 16.51 151.079 16.51C151.559 16.51 152.057 16.552 152.573 16.636C153.101 16.72 153.563 16.834 153.959 16.978V16.096C153.959 15.232 153.707 14.542 153.203 14.026C152.699 13.51 152.015 13.252 151.151 13.252C150.683 13.252 150.197 13.348 149.693 13.54C149.189 13.732 148.673 14.008 148.145 14.368L147.767 13.72C148.991 12.892 150.149 12.478 151.241 12.478C152.345 12.478 153.221 12.808 153.869 13.468C154.529 14.128 154.859 15.028 154.859 16.168V20.812C154.859 21.1 154.991 21.25 155.255 21.262V22C155.027 22.024 154.877 22.03 154.805 22.018C154.577 21.994 154.397 21.898 154.265 21.73C154.145 21.562 154.079 21.388 154.067 21.208V20.47C153.635 21.01 153.077 21.43 152.393 21.73C151.721 22.03 151.013 22.18 150.269 22.18C149.681 22.18 149.147 22.054 148.667 21.802C148.199 21.538 147.827 21.19 147.551 20.758C147.287 20.326 147.155 19.84 147.155 19.3ZM153.599 20.074C153.839 19.774 153.959 19.492 153.959 19.228V17.68C153.095 17.344 152.165 17.176 151.169 17.176C150.221 17.176 149.459 17.368 148.883 17.752C148.307 18.124 148.019 18.622 148.019 19.246C148.019 19.642 148.121 20.008 148.325 20.344C148.529 20.68 148.811 20.95 149.171 21.154C149.543 21.358 149.969 21.46 150.449 21.46C151.121 21.46 151.739 21.334 152.303 21.082C152.867 20.818 153.299 20.482 153.599 20.074ZM166.792 22.18C165.988 22.18 165.268 21.97 164.632 21.55C164.008 21.118 163.504 20.596 163.12 19.984V25.834H162.22V12.64H163.048V14.512C163.432 13.912 163.942 13.426 164.578 13.054C165.214 12.67 165.886 12.478 166.594 12.478C167.242 12.478 167.836 12.616 168.376 12.892C168.928 13.156 169.402 13.522 169.798 13.99C170.206 14.446 170.518 14.962 170.734 15.538C170.962 16.114 171.076 16.714 171.076 17.338C171.076 18.202 170.896 19.006 170.536 19.75C170.176 20.482 169.672 21.07 169.024 21.514C168.388 21.958 167.644 22.18 166.792 22.18ZM166.576 21.37C167.296 21.37 167.926 21.178 168.466 20.794C169.006 20.398 169.42 19.894 169.708 19.282C170.008 18.658 170.158 18.01 170.158 17.338C170.158 16.618 169.99 15.952 169.654 15.34C169.33 14.728 168.88 14.236 168.304 13.864C167.74 13.48 167.11 13.288 166.414 13.288C166.09 13.288 165.742 13.36 165.37 13.504C165.01 13.636 164.662 13.822 164.326 14.062C164.002 14.29 163.726 14.554 163.498 14.854C163.282 15.154 163.156 15.472 163.12 15.808V18.886C163.324 19.342 163.6 19.762 163.948 20.146C164.308 20.518 164.71 20.818 165.154 21.046C165.61 21.262 166.084 21.37 166.576 21.37ZM172.468 19.3C172.468 18.748 172.63 18.262 172.954 17.842C173.29 17.422 173.752 17.098 174.34 16.87C174.94 16.63 175.624 16.51 176.392 16.51C176.872 16.51 177.37 16.552 177.886 16.636C178.414 16.72 178.876 16.834 179.272 16.978V16.096C179.272 15.232 179.02 14.542 178.516 14.026C178.012 13.51 177.328 13.252 176.464 13.252C175.996 13.252 175.51 13.348 175.006 13.54C174.502 13.732 173.986 14.008 173.458 14.368L173.08 13.72C174.304 12.892 175.462 12.478 176.554 12.478C177.658 12.478 178.534 12.808 179.182 13.468C179.842 14.128 180.172 15.028 180.172 16.168V20.812C180.172 21.1 180.304 21.25 180.568 21.262V22C180.34 22.024 180.19 22.03 180.118 22.018C179.89 21.994 179.71 21.898 179.578 21.73C179.458 21.562 179.392 21.388 179.38 21.208V20.47C178.948 21.01 178.39 21.43 177.706 21.73C177.034 22.03 176.326 22.18 175.582 22.18C174.994 22.18 174.46 22.054 173.98 21.802C173.512 21.538 173.14 21.19 172.864 20.758C172.6 20.326 172.468 19.84 172.468 19.3ZM178.912 20.074C179.152 19.774 179.272 19.492 179.272 19.228V17.68C178.408 17.344 177.478 17.176 176.482 17.176C175.534 17.176 174.772 17.368 174.196 17.752C173.62 18.124 173.332 18.622 173.332 19.246C173.332 19.642 173.434 20.008 173.638 20.344C173.842 20.68 174.124 20.95 174.484 21.154C174.856 21.358 175.282 21.46 175.762 21.46C176.434 21.46 177.052 21.334 177.616 21.082C178.18 20.818 178.612 20.482 178.912 20.074ZM187.338 13.45C186.498 13.474 185.76 13.726 185.124 14.206C184.5 14.674 184.062 15.322 183.81 16.15V22H182.91V12.64H183.774V14.944C184.098 14.296 184.53 13.762 185.07 13.342C185.61 12.922 186.18 12.682 186.78 12.622C186.9 12.622 187.002 12.622 187.086 12.622C187.182 12.61 187.266 12.604 187.338 12.604V13.45ZM188.2 19.3C188.2 18.748 188.362 18.262 188.686 17.842C189.022 17.422 189.484 17.098 190.072 16.87C190.672 16.63 191.356 16.51 192.124 16.51C192.604 16.51 193.102 16.552 193.618 16.636C194.146 16.72 194.608 16.834 195.004 16.978V16.096C195.004 15.232 194.752 14.542 194.248 14.026C193.744 13.51 193.06 13.252 192.196 13.252C191.728 13.252 191.242 13.348 190.738 13.54C190.234 13.732 189.718 14.008 189.19 14.368L188.812 13.72C190.036 12.892 191.194 12.478 192.286 12.478C193.39 12.478 194.266 12.808 194.914 13.468C195.574 14.128 195.904 15.028 195.904 16.168V20.812C195.904 21.1 196.036 21.25 196.3 21.262V22C196.072 22.024 195.922 22.03 195.85 22.018C195.622 21.994 195.442 21.898 195.31 21.73C195.19 21.562 195.124 21.388 195.112 21.208V20.47C194.68 21.01 194.122 21.43 193.438 21.73C192.766 22.03 192.058 22.18 191.314 22.18C190.726 22.18 190.192 22.054 189.712 21.802C189.244 21.538 188.872 21.19 188.596 20.758C188.332 20.326 188.2 19.84 188.2 19.3ZM194.644 20.074C194.884 19.774 195.004 19.492 195.004 19.228V17.68C194.14 17.344 193.21 17.176 192.214 17.176C191.266 17.176 190.504 17.368 189.928 17.752C189.352 18.124 189.064 18.622 189.064 19.246C189.064 19.642 189.166 20.008 189.37 20.344C189.574 20.68 189.856 20.95 190.216 21.154C190.588 21.358 191.014 21.46 191.494 21.46C192.166 21.46 192.784 21.334 193.348 21.082C193.912 20.818 194.344 20.482 194.644 20.074ZM207.243 22.18C206.367 22.18 205.575 21.958 204.867 21.514C204.171 21.07 203.619 20.476 203.211 19.732C202.815 18.988 202.617 18.172 202.617 17.284C202.617 16.408 202.815 15.61 203.211 14.89C203.607 14.158 204.153 13.576 204.849 13.144C205.545 12.7 206.325 12.478 207.189 12.478C208.077 12.478 208.863 12.7 209.547 13.144C210.243 13.576 210.789 14.158 211.185 14.89C211.581 15.622 211.779 16.42 211.779 17.284C211.779 17.428 211.773 17.56 211.761 17.68H203.553C203.601 18.4 203.799 19.048 204.147 19.624C204.495 20.188 204.939 20.638 205.479 20.974C206.031 21.298 206.631 21.46 207.279 21.46C207.927 21.46 208.539 21.292 209.115 20.956C209.691 20.62 210.093 20.188 210.321 19.66L211.113 19.876C210.933 20.32 210.645 20.716 210.249 21.064C209.865 21.412 209.409 21.688 208.881 21.892C208.365 22.084 207.819 22.18 207.243 22.18ZM203.517 16.978H210.915C210.867 16.246 210.669 15.598 210.321 15.034C209.985 14.458 209.547 14.014 209.007 13.702C208.467 13.378 207.867 13.216 207.207 13.216C206.547 13.216 205.947 13.378 205.407 13.702C204.867 14.026 204.429 14.476 204.093 15.052C203.757 15.616 203.565 16.258 203.517 16.978ZM213.831 8.86H214.749V20.146C214.749 20.578 214.839 20.878 215.019 21.046C215.199 21.202 215.433 21.28 215.721 21.28C215.913 21.28 216.111 21.262 216.315 21.226C216.519 21.19 216.699 21.142 216.855 21.082L217.035 21.82C216.831 21.892 216.579 21.958 216.279 22.018C215.979 22.078 215.721 22.108 215.505 22.108C215.001 22.108 214.593 21.958 214.281 21.658C213.981 21.346 213.831 20.932 213.831 20.416V8.86ZM225.43 22.18C224.686 22.18 223.996 22.054 223.36 21.802C222.724 21.55 222.166 21.166 221.686 20.65L222.1 20.02C222.604 20.512 223.12 20.872 223.648 21.1C224.188 21.316 224.77 21.424 225.394 21.424C226.186 21.424 226.834 21.256 227.338 20.92C227.842 20.584 228.094 20.116 228.094 19.516C228.094 19.108 227.974 18.796 227.734 18.58C227.506 18.364 227.17 18.184 226.726 18.04C226.294 17.896 225.766 17.746 225.142 17.59C224.506 17.422 223.972 17.248 223.54 17.068C223.108 16.888 222.778 16.654 222.55 16.366C222.334 16.078 222.226 15.688 222.226 15.196C222.226 14.584 222.376 14.08 222.676 13.684C222.988 13.276 223.402 12.976 223.918 12.784C224.446 12.58 225.028 12.478 225.664 12.478C226.396 12.478 227.032 12.598 227.572 12.838C228.124 13.078 228.544 13.396 228.832 13.792L228.346 14.368C228.058 13.996 227.668 13.714 227.176 13.522C226.684 13.33 226.156 13.234 225.592 13.234C225.148 13.234 224.734 13.294 224.35 13.414C223.978 13.534 223.672 13.732 223.432 14.008C223.204 14.272 223.09 14.632 223.09 15.088C223.09 15.448 223.174 15.73 223.342 15.934C223.51 16.138 223.768 16.306 224.116 16.438C224.464 16.558 224.902 16.69 225.43 16.834C226.162 17.014 226.792 17.2 227.32 17.392C227.848 17.584 228.256 17.836 228.544 18.148C228.832 18.448 228.976 18.874 228.976 19.426C228.976 20.278 228.652 20.95 228.004 21.442C227.356 21.934 226.498 22.18 225.43 22.18ZM231.002 18.04V12.64H231.902V17.914C231.902 20.218 232.688 21.37 234.26 21.37C234.788 21.37 235.292 21.256 235.772 21.028C236.264 20.788 236.69 20.458 237.05 20.038C237.422 19.606 237.704 19.108 237.896 18.544V12.64H238.796V20.812C238.796 21.1 238.922 21.25 239.174 21.262V22C238.97 22.024 238.82 22.024 238.724 22C238.52 21.976 238.352 21.892 238.22 21.748C238.088 21.592 238.016 21.406 238.004 21.19L237.986 19.786C237.578 20.53 237.014 21.118 236.294 21.55C235.586 21.97 234.818 22.18 233.99 22.18C231.998 22.18 231.002 20.8 231.002 18.04ZM246.228 22.18C245.424 22.18 244.704 21.97 244.068 21.55C243.444 21.118 242.94 20.596 242.556 19.984V25.834H241.656V12.64H242.484V14.512C242.868 13.912 243.378 13.426 244.014 13.054C244.65 12.67 245.322 12.478 246.03 12.478C246.678 12.478 247.272 12.616 247.812 12.892C248.364 13.156 248.838 13.522 249.234 13.99C249.642 14.446 249.954 14.962 250.17 15.538C250.398 16.114 250.512 16.714 250.512 17.338C250.512 18.202 250.332 19.006 249.972 19.75C249.612 20.482 249.108 21.07 248.46 21.514C247.824 21.958 247.08 22.18 246.228 22.18ZM246.012 21.37C246.732 21.37 247.362 21.178 247.902 20.794C248.442 20.398 248.856 19.894 249.144 19.282C249.444 18.658 249.594 18.01 249.594 17.338C249.594 16.618 249.426 15.952 249.09 15.34C248.766 14.728 248.316 14.236 247.74 13.864C247.176 13.48 246.546 13.288 245.85 13.288C245.526 13.288 245.178 13.36 244.806 13.504C244.446 13.636 244.098 13.822 243.762 14.062C243.438 14.29 243.162 14.554 242.934 14.854C242.718 15.154 242.592 15.472 242.556 15.808V18.886C242.76 19.342 243.036 19.762 243.384 20.146C243.744 20.518 244.146 20.818 244.59 21.046C245.046 21.262 245.52 21.37 246.012 21.37ZM256.655 22.18C255.779 22.18 254.987 21.958 254.279 21.514C253.583 21.07 253.031 20.476 252.623 19.732C252.227 18.988 252.029 18.172 252.029 17.284C252.029 16.408 252.227 15.61 252.623 14.89C253.019 14.158 253.565 13.576 254.261 13.144C254.957 12.7 255.737 12.478 256.601 12.478C257.489 12.478 258.275 12.7 258.959 13.144C259.655 13.576 260.201 14.158 260.597 14.89C260.993 15.622 261.191 16.42 261.191 17.284C261.191 17.428 261.185 17.56 261.173 17.68H252.965C253.013 18.4 253.211 19.048 253.559 19.624C253.907 20.188 254.351 20.638 254.891 20.974C255.443 21.298 256.043 21.46 256.691 21.46C257.339 21.46 257.951 21.292 258.527 20.956C259.103 20.62 259.505 20.188 259.733 19.66L260.525 19.876C260.345 20.32 260.057 20.716 259.661 21.064C259.277 21.412 258.821 21.688 258.293 21.892C257.777 22.084 257.231 22.18 256.655 22.18ZM252.929 16.978H260.327C260.279 16.246 260.081 15.598 259.733 15.034C259.397 14.458 258.959 14.014 258.419 13.702C257.879 13.378 257.279 13.216 256.619 13.216C255.959 13.216 255.359 13.378 254.819 13.702C254.279 14.026 253.841 14.476 253.505 15.052C253.169 15.616 252.977 16.258 252.929 16.978ZM267.6 13.45C266.76 13.474 266.022 13.726 265.386 14.206C264.762 14.674 264.324 15.322 264.072 16.15V22H263.172V12.64H264.036V14.944C264.36 14.296 264.792 13.762 265.332 13.342C265.872 12.922 266.442 12.682 267.042 12.622C267.162 12.622 267.264 12.622 267.348 12.622C267.444 12.61 267.528 12.604 267.6 12.604V13.45Z" fill="black"/>
</g>
<path d="M73.1147 146.772C73.1147 147.216 72.9587 147.6 72.6467 147.924C72.3347 148.236 71.9567 148.392 71.5127 148.392C71.0687 148.392 70.6847 148.236 70.3607 147.924C70.0487 147.6 69.8927 147.216 69.8927 146.772C69.8927 146.34 70.0487 145.968 70.3607 145.656C70.6847 145.332 71.0687 145.17 71.5127 145.17C71.9567 145.17 72.3347 145.332 72.6467 145.656C72.9587 145.968 73.1147 146.34 73.1147 146.772ZM86.602 153V140.22H91.894C92.446 140.22 92.95 140.334 93.406 140.562C93.874 140.79 94.276 141.102 94.612 141.498C94.96 141.882 95.224 142.314 95.404 142.794C95.596 143.262 95.692 143.742 95.692 144.234C95.692 144.93 95.536 145.59 95.224 146.214C94.912 146.826 94.48 147.324 93.928 147.708C93.376 148.092 92.734 148.284 92.002 148.284H87.862V153H86.602ZM87.862 147.168H91.948C92.452 147.168 92.89 147.03 93.262 146.754C93.634 146.478 93.922 146.118 94.126 145.674C94.33 145.23 94.432 144.75 94.432 144.234C94.432 143.706 94.312 143.226 94.072 142.794C93.832 142.35 93.514 141.996 93.118 141.732C92.734 141.468 92.308 141.336 91.84 141.336H87.862V147.168ZM96.6858 150.3C96.6858 149.724 96.8538 149.226 97.1898 148.806C97.5258 148.374 97.9878 148.038 98.5758 147.798C99.1758 147.558 99.8658 147.438 100.646 147.438C101.102 147.438 101.576 147.48 102.068 147.564C102.56 147.636 102.998 147.738 103.382 147.87V147.078C103.382 146.286 103.148 145.656 102.68 145.188C102.212 144.72 101.564 144.486 100.736 144.486C100.244 144.486 99.7518 144.582 99.2598 144.774C98.7678 144.954 98.2578 145.224 97.7298 145.584L97.2618 144.72C97.8738 144.3 98.4738 143.988 99.0618 143.784C99.6498 143.568 100.25 143.46 100.862 143.46C102.014 143.46 102.926 143.79 103.598 144.45C104.27 145.11 104.606 146.022 104.606 147.186V151.524C104.606 151.848 104.756 152.016 105.056 152.028V153C104.792 153.036 104.606 153.048 104.498 153.036C104.198 153.024 103.97 152.928 103.814 152.748C103.658 152.568 103.574 152.376 103.562 152.172L103.544 151.488C103.124 152.028 102.578 152.448 101.906 152.748C101.234 153.036 100.55 153.18 99.8538 153.18C99.2418 153.18 98.6958 153.054 98.2158 152.802C97.7358 152.538 97.3578 152.19 97.0818 151.758C96.8178 151.314 96.6858 150.828 96.6858 150.3ZM102.968 151.02C103.244 150.696 103.382 150.396 103.382 150.12V148.752C102.554 148.428 101.69 148.266 100.79 148.266C99.9138 148.266 99.2058 148.44 98.6658 148.788C98.1258 149.136 97.8558 149.61 97.8558 150.21C97.8558 150.726 98.0538 151.194 98.4498 151.614C98.8578 152.034 99.4218 152.244 100.142 152.244C100.73 152.244 101.276 152.13 101.78 151.902C102.296 151.674 102.692 151.38 102.968 151.02ZM110.328 153.18C109.56 153.18 108.846 153.054 108.186 152.802C107.538 152.538 106.968 152.154 106.476 151.65L106.98 150.786C107.508 151.278 108.036 151.638 108.564 151.866C109.104 152.082 109.674 152.19 110.274 152.19C110.994 152.19 111.582 152.046 112.038 151.758C112.506 151.458 112.74 151.032 112.74 150.48C112.74 150.108 112.626 149.826 112.398 149.634C112.182 149.43 111.864 149.268 111.444 149.148C111.036 149.028 110.544 148.89 109.968 148.734C109.32 148.554 108.774 148.368 108.33 148.176C107.898 147.972 107.568 147.72 107.34 147.42C107.124 147.108 107.016 146.706 107.016 146.214C107.016 145.614 107.166 145.11 107.466 144.702C107.778 144.294 108.198 143.988 108.726 143.784C109.266 143.568 109.866 143.46 110.526 143.46C111.246 143.46 111.882 143.574 112.434 143.802C112.986 144.03 113.436 144.348 113.784 144.756L113.19 145.584C112.866 145.2 112.464 144.918 111.984 144.738C111.516 144.546 111.006 144.45 110.454 144.45C110.07 144.45 109.704 144.504 109.356 144.612C109.008 144.708 108.72 144.876 108.492 145.116C108.276 145.344 108.168 145.662 108.168 146.07C108.168 146.574 108.354 146.922 108.726 147.114C109.098 147.306 109.662 147.51 110.418 147.726C111.126 147.918 111.744 148.11 112.272 148.302C112.8 148.494 113.208 148.752 113.496 149.076C113.784 149.388 113.928 149.826 113.928 150.39C113.928 151.266 113.598 151.95 112.938 152.442C112.278 152.934 111.408 153.18 110.328 153.18ZM120.452 152.55C120.308 152.61 120.044 152.718 119.66 152.874C119.276 153.03 118.832 153.108 118.328 153.108C117.8 153.108 117.338 152.958 116.942 152.658C116.546 152.358 116.348 151.908 116.348 151.308V144.594H115.052V143.622H116.348V140.454H117.572V143.622H119.732V144.594H117.572V150.966C117.596 151.314 117.716 151.572 117.932 151.74C118.16 151.896 118.418 151.974 118.706 151.974C119.042 151.974 119.342 151.92 119.606 151.812C119.882 151.692 120.056 151.608 120.128 151.56L120.452 152.55ZM121.225 150.3C121.225 149.724 121.393 149.226 121.729 148.806C122.065 148.374 122.527 148.038 123.115 147.798C123.715 147.558 124.405 147.438 125.185 147.438C125.641 147.438 126.115 147.48 126.607 147.564C127.099 147.636 127.537 147.738 127.921 147.87V147.078C127.921 146.286 127.687 145.656 127.219 145.188C126.751 144.72 126.103 144.486 125.275 144.486C124.783 144.486 124.291 144.582 123.799 144.774C123.307 144.954 122.797 145.224 122.269 145.584L121.801 144.72C122.413 144.3 123.013 143.988 123.601 143.784C124.189 143.568 124.789 143.46 125.401 143.46C126.553 143.46 127.465 143.79 128.137 144.45C128.809 145.11 129.145 146.022 129.145 147.186V151.524C129.145 151.848 129.295 152.016 129.595 152.028V153C129.331 153.036 129.145 153.048 129.037 153.036C128.737 153.024 128.509 152.928 128.353 152.748C128.197 152.568 128.113 152.376 128.101 152.172L128.083 151.488C127.663 152.028 127.117 152.448 126.445 152.748C125.773 153.036 125.089 153.18 124.393 153.18C123.781 153.18 123.235 153.054 122.755 152.802C122.275 152.538 121.897 152.19 121.621 151.758C121.357 151.314 121.225 150.828 121.225 150.3ZM127.507 151.02C127.783 150.696 127.921 150.396 127.921 150.12V148.752C127.093 148.428 126.229 148.266 125.329 148.266C124.453 148.266 123.745 148.44 123.205 148.788C122.665 149.136 122.395 149.61 122.395 150.21C122.395 150.726 122.593 151.194 122.989 151.614C123.397 152.034 123.961 152.244 124.681 152.244C125.269 152.244 125.815 152.13 126.319 151.902C126.835 151.674 127.231 151.38 127.507 151.02ZM73.1147 171.772C73.1147 172.216 72.9587 172.6 72.6467 172.924C72.3347 173.236 71.9567 173.392 71.5127 173.392C71.0687 173.392 70.6847 173.236 70.3607 172.924C70.0487 172.6 69.8927 172.216 69.8927 171.772C69.8927 171.34 70.0487 170.968 70.3607 170.656C70.6847 170.332 71.0687 170.17 71.5127 170.17C71.9567 170.17 72.3347 170.332 72.6467 170.656C72.9587 170.968 73.1147 171.34 73.1147 171.772ZM90.562 165.22H91.624L96.934 178H95.602L93.946 174.004H88.204L86.566 178H85.216L90.562 165.22ZM93.658 173.014L91.084 166.696L88.474 173.014H93.658ZM102.627 177.55C102.483 177.61 102.219 177.718 101.835 177.874C101.451 178.03 101.007 178.108 100.503 178.108C99.9753 178.108 99.5133 177.958 99.1173 177.658C98.7213 177.358 98.5233 176.908 98.5233 176.308V169.594H97.2273V168.622H98.5233V165.454H99.7473V168.622H101.907V169.594H99.7473V175.966C99.7713 176.314 99.8913 176.572 100.107 176.74C100.335 176.896 100.593 176.974 100.881 176.974C101.217 176.974 101.517 176.92 101.781 176.812C102.057 176.692 102.231 176.608 102.303 176.56L102.627 177.55ZM104.067 174.13V168.622H105.291V173.914C105.291 176.038 106.017 177.1 107.469 177.1C108.189 177.1 108.861 176.866 109.485 176.398C110.121 175.93 110.577 175.306 110.853 174.526V168.622H112.077V176.524C112.077 176.848 112.221 177.016 112.509 177.028V178C112.365 178.024 112.251 178.036 112.167 178.036C112.095 178.036 112.017 178.036 111.933 178.036C111.681 178.012 111.465 177.916 111.285 177.748C111.117 177.58 111.033 177.376 111.033 177.136L110.997 175.876C110.589 176.608 110.031 177.178 109.323 177.586C108.627 177.982 107.871 178.18 107.055 178.18C105.063 178.18 104.067 176.83 104.067 174.13ZM122.728 178H121.504V172.762C121.504 171.658 121.336 170.854 121 170.35C120.676 169.834 120.172 169.576 119.488 169.576C119.008 169.576 118.534 169.696 118.066 169.936C117.598 170.164 117.184 170.482 116.824 170.89C116.476 171.286 116.224 171.742 116.068 172.258V178H114.844V168.622H115.96V170.746C116.332 170.062 116.878 169.51 117.598 169.09C118.318 168.67 119.098 168.46 119.938 168.46C120.634 168.46 121.186 168.628 121.594 168.964C122.002 169.288 122.29 169.756 122.458 170.368C122.638 170.968 122.728 171.682 122.728 172.51V178ZM129.388 178.18C128.488 178.18 127.684 177.958 126.976 177.514C126.268 177.07 125.71 176.476 125.302 175.732C124.894 174.988 124.69 174.172 124.69 173.284C124.69 172.408 124.888 171.604 125.284 170.872C125.692 170.14 126.25 169.558 126.958 169.126C127.666 168.682 128.47 168.46 129.37 168.46C130.294 168.46 131.104 168.682 131.8 169.126C132.496 169.57 133.036 170.158 133.42 170.89C133.816 171.61 134.014 172.402 134.014 173.266C134.014 173.458 134.008 173.62 133.996 173.752H125.968C126.028 174.424 126.22 175.024 126.544 175.552C126.868 176.068 127.282 176.482 127.786 176.794C128.29 177.094 128.842 177.244 129.442 177.244C130.054 177.244 130.63 177.088 131.17 176.776C131.71 176.464 132.094 176.056 132.322 175.552L133.384 175.84C133.192 176.296 132.892 176.704 132.484 177.064C132.088 177.412 131.626 177.688 131.098 177.892C130.57 178.084 130 178.18 129.388 178.18ZM125.932 172.87H132.862C132.814 172.198 132.628 171.604 132.304 171.088C131.98 170.56 131.566 170.152 131.062 169.864C130.558 169.564 130 169.414 129.388 169.414C128.776 169.414 128.218 169.564 127.714 169.864C127.21 170.152 126.796 170.56 126.472 171.088C126.16 171.604 125.98 172.198 125.932 172.87ZM138.981 178.18C138.213 178.18 137.499 178.054 136.839 177.802C136.191 177.538 135.621 177.154 135.129 176.65L135.633 175.786C136.161 176.278 136.689 176.638 137.217 176.866C137.757 177.082 138.327 177.19 138.927 177.19C139.647 177.19 140.235 177.046 140.691 176.758C141.159 176.458 141.393 176.032 141.393 175.48C141.393 175.108 141.279 174.826 141.051 174.634C140.835 174.43 140.517 174.268 140.097 174.148C139.689 174.028 139.197 173.89 138.621 173.734C137.973 173.554 137.427 173.368 136.983 173.176C136.551 172.972 136.221 172.72 135.993 172.42C135.777 172.108 135.669 171.706 135.669 171.214C135.669 170.614 135.819 170.11 136.119 169.702C136.431 169.294 136.851 168.988 137.379 168.784C137.919 168.568 138.519 168.46 139.179 168.46C139.899 168.46 140.535 168.574 141.087 168.802C141.639 169.03 142.089 169.348 142.437 169.756L141.843 170.584C141.519 170.2 141.117 169.918 140.637 169.738C140.169 169.546 139.659 169.45 139.107 169.45C138.723 169.45 138.357 169.504 138.009 169.612C137.661 169.708 137.373 169.876 137.145 170.116C136.929 170.344 136.821 170.662 136.821 171.07C136.821 171.574 137.007 171.922 137.379 172.114C137.751 172.306 138.315 172.51 139.071 172.726C139.779 172.918 140.397 173.11 140.925 173.302C141.453 173.494 141.861 173.752 142.149 174.076C142.437 174.388 142.581 174.826 142.581 175.39C142.581 176.266 142.251 176.95 141.591 177.442C140.931 177.934 140.061 178.18 138.981 178.18ZM73.1147 196.772C73.1147 197.216 72.9587 197.6 72.6467 197.924C72.3347 198.236 71.9567 198.392 71.5127 198.392C71.0687 198.392 70.6847 198.236 70.3607 197.924C70.0487 197.6 69.8927 197.216 69.8927 196.772C69.8927 196.34 70.0487 195.968 70.3607 195.656C70.6847 195.332 71.0687 195.17 71.5127 195.17C71.9567 195.17 72.3347 195.332 72.6467 195.656C72.9587 195.968 73.1147 196.34 73.1147 196.772ZM86.602 203V190.22H91.894C92.446 190.22 92.95 190.334 93.406 190.562C93.874 190.79 94.276 191.102 94.612 191.498C94.96 191.882 95.224 192.314 95.404 192.794C95.596 193.262 95.692 193.742 95.692 194.234C95.692 194.93 95.536 195.59 95.224 196.214C94.912 196.826 94.48 197.324 93.928 197.708C93.376 198.092 92.734 198.284 92.002 198.284H87.862V203H86.602ZM87.862 197.168H91.948C92.452 197.168 92.89 197.03 93.262 196.754C93.634 196.478 93.922 196.118 94.126 195.674C94.33 195.23 94.432 194.75 94.432 194.234C94.432 193.706 94.312 193.226 94.072 192.794C93.832 192.35 93.514 191.996 93.118 191.732C92.734 191.468 92.308 191.336 91.84 191.336H87.862V197.168ZM101.421 203.18C100.521 203.18 99.7175 202.958 99.0095 202.514C98.3015 202.07 97.7435 201.476 97.3355 200.732C96.9275 199.988 96.7235 199.172 96.7235 198.284C96.7235 197.408 96.9215 196.604 97.3175 195.872C97.7255 195.14 98.2835 194.558 98.9915 194.126C99.6995 193.682 100.503 193.46 101.403 193.46C102.327 193.46 103.137 193.682 103.833 194.126C104.529 194.57 105.069 195.158 105.453 195.89C105.849 196.61 106.047 197.402 106.047 198.266C106.047 198.458 106.041 198.62 106.029 198.752H98.0015C98.0615 199.424 98.2535 200.024 98.5775 200.552C98.9015 201.068 99.3155 201.482 99.8195 201.794C100.323 202.094 100.875 202.244 101.475 202.244C102.087 202.244 102.663 202.088 103.203 201.776C103.743 201.464 104.127 201.056 104.355 200.552L105.417 200.84C105.225 201.296 104.925 201.704 104.517 202.064C104.121 202.412 103.659 202.688 103.131 202.892C102.603 203.084 102.033 203.18 101.421 203.18ZM97.9655 197.87H104.895C104.847 197.198 104.661 196.604 104.337 196.088C104.013 195.56 103.599 195.152 103.095 194.864C102.591 194.564 102.033 194.414 101.421 194.414C100.809 194.414 100.251 194.564 99.7475 194.864C99.2435 195.152 98.8295 195.56 98.5055 196.088C98.1935 196.604 98.0135 197.198 97.9655 197.87ZM112.004 203.18C111.092 203.18 110.282 202.958 109.574 202.514C108.866 202.058 108.308 201.464 107.9 200.732C107.492 199.988 107.288 199.172 107.288 198.284C107.288 197.396 107.486 196.592 107.882 195.872C108.278 195.14 108.83 194.558 109.538 194.126C110.246 193.682 111.062 193.46 111.986 193.46C112.862 193.46 113.63 193.664 114.29 194.072C114.962 194.468 115.466 195.008 115.802 195.692L114.614 196.07C114.35 195.59 113.978 195.218 113.498 194.954C113.03 194.678 112.508 194.54 111.932 194.54C111.296 194.54 110.72 194.702 110.204 195.026C109.7 195.35 109.292 195.8 108.98 196.376C108.68 196.94 108.53 197.576 108.53 198.284C108.53 198.992 108.686 199.634 108.998 200.21C109.31 200.786 109.724 201.248 110.24 201.596C110.756 201.932 111.326 202.1 111.95 202.1C112.358 202.1 112.754 202.028 113.138 201.884C113.522 201.74 113.852 201.548 114.128 201.308C114.404 201.056 114.59 200.786 114.686 200.498L115.892 200.858C115.724 201.302 115.448 201.704 115.064 202.064C114.68 202.412 114.224 202.688 113.696 202.892C113.168 203.084 112.604 203.18 112.004 203.18ZM125.699 203H124.475V197.762C124.475 195.638 123.755 194.576 122.315 194.576C121.847 194.576 121.391 194.696 120.947 194.936C120.503 195.164 120.107 195.482 119.759 195.89C119.423 196.286 119.183 196.742 119.039 197.258V203H117.815V189.86H119.039V195.746C119.411 195.05 119.927 194.498 120.587 194.09C121.259 193.67 121.973 193.46 122.729 193.46C123.449 193.46 124.025 193.634 124.457 193.982C124.889 194.318 125.201 194.792 125.393 195.404C125.597 196.004 125.699 196.706 125.699 197.51V203ZM128.219 199.13V193.622H129.443V198.914C129.443 201.038 130.169 202.1 131.621 202.1C132.341 202.1 133.013 201.866 133.637 201.398C134.273 200.93 134.729 200.306 135.005 199.526V193.622H136.229V201.524C136.229 201.848 136.373 202.016 136.661 202.028V203C136.517 203.024 136.403 203.036 136.319 203.036C136.247 203.036 136.169 203.036 136.085 203.036C135.833 203.012 135.617 202.916 135.437 202.748C135.269 202.58 135.185 202.376 135.185 202.136L135.149 200.876C134.741 201.608 134.183 202.178 133.475 202.586C132.779 202.982 132.023 203.18 131.207 203.18C129.215 203.18 128.219 201.83 128.219 199.13ZM142.758 203.126C142.11 203.126 141.516 202.994 140.976 202.73C140.448 202.466 139.986 202.112 139.59 201.668C139.206 201.212 138.906 200.696 138.69 200.12C138.474 199.544 138.366 198.95 138.366 198.338C138.366 197.462 138.552 196.658 138.924 195.926C139.296 195.182 139.806 194.588 140.454 194.144C141.114 193.688 141.87 193.46 142.722 193.46C143.526 193.46 144.222 193.664 144.81 194.072C145.41 194.48 145.914 194.984 146.322 195.584V193.622H147.42V203.036C147.42 203.912 147.21 204.644 146.79 205.232C146.37 205.82 145.812 206.264 145.116 206.564C144.42 206.864 143.658 207.014 142.83 207.014C141.75 207.014 140.88 206.822 140.22 206.438C139.572 206.054 139.038 205.538 138.618 204.89L139.374 204.296C139.746 204.884 140.238 205.322 140.85 205.61C141.474 205.898 142.134 206.042 142.83 206.042C143.442 206.042 144 205.928 144.504 205.7C145.02 205.484 145.428 205.154 145.728 204.71C146.04 204.266 146.196 203.708 146.196 203.036V201.182C145.836 201.77 145.344 202.244 144.72 202.604C144.096 202.952 143.442 203.126 142.758 203.126ZM143.1 202.1C143.592 202.1 144.06 201.986 144.504 201.758C144.948 201.53 145.32 201.242 145.62 200.894C145.932 200.534 146.124 200.162 146.196 199.778V196.88C146.016 196.424 145.758 196.022 145.422 195.674C145.086 195.314 144.702 195.038 144.27 194.846C143.838 194.642 143.4 194.54 142.956 194.54C142.26 194.54 141.66 194.732 141.156 195.116C140.664 195.488 140.28 195.968 140.004 196.556C139.74 197.132 139.608 197.732 139.608 198.356C139.608 199.028 139.764 199.652 140.076 200.228C140.388 200.792 140.808 201.248 141.336 201.596C141.864 201.932 142.452 202.1 143.1 202.1ZM149.367 200.3C149.367 199.724 149.535 199.226 149.871 198.806C150.207 198.374 150.669 198.038 151.257 197.798C151.857 197.558 152.547 197.438 153.327 197.438C153.783 197.438 154.257 197.48 154.749 197.564C155.241 197.636 155.679 197.738 156.063 197.87V197.078C156.063 196.286 155.829 195.656 155.361 195.188C154.893 194.72 154.245 194.486 153.417 194.486C152.925 194.486 152.433 194.582 151.941 194.774C151.449 194.954 150.939 195.224 150.411 195.584L149.943 194.72C150.555 194.3 151.155 193.988 151.743 193.784C152.331 193.568 152.931 193.46 153.543 193.46C154.695 193.46 155.607 193.79 156.279 194.45C156.951 195.11 157.287 196.022 157.287 197.186V201.524C157.287 201.848 157.437 202.016 157.737 202.028V203C157.473 203.036 157.287 203.048 157.179 203.036C156.879 203.024 156.651 202.928 156.495 202.748C156.339 202.568 156.255 202.376 156.243 202.172L156.225 201.488C155.805 202.028 155.259 202.448 154.587 202.748C153.915 203.036 153.231 203.18 152.535 203.18C151.923 203.18 151.377 203.054 150.897 202.802C150.417 202.538 150.039 202.19 149.763 201.758C149.499 201.314 149.367 200.828 149.367 200.3ZM155.649 201.02C155.925 200.696 156.063 200.396 156.063 200.12V198.752C155.235 198.428 154.371 198.266 153.471 198.266C152.595 198.266 151.887 198.44 151.347 198.788C150.807 199.136 150.537 199.61 150.537 200.21C150.537 200.726 150.735 201.194 151.131 201.614C151.539 202.034 152.103 202.244 152.823 202.244C153.411 202.244 153.957 202.13 154.461 201.902C154.977 201.674 155.373 201.38 155.649 201.02ZM163.89 198.338C163.89 197.45 164.07 196.64 164.43 195.908C164.802 195.164 165.312 194.57 165.96 194.126C166.608 193.682 167.346 193.46 168.174 193.46C168.954 193.46 169.65 193.67 170.262 194.09C170.886 194.498 171.372 194.996 171.72 195.584V189.86H172.944V201.524C172.944 201.848 173.088 202.016 173.376 202.028V203C173.136 203.036 172.95 203.048 172.818 203.036C172.554 203.024 172.326 202.928 172.134 202.748C171.954 202.556 171.864 202.34 171.864 202.1V201.182C171.492 201.794 170.988 202.28 170.352 202.64C169.716 203 169.056 203.18 168.372 203.18C167.724 203.18 167.124 203.048 166.572 202.784C166.02 202.52 165.54 202.16 165.132 201.704C164.736 201.248 164.43 200.732 164.214 200.156C163.998 199.568 163.89 198.962 163.89 198.338ZM171.72 199.778V196.88C171.564 196.448 171.312 196.058 170.964 195.71C170.616 195.35 170.22 195.068 169.776 194.864C169.344 194.648 168.912 194.54 168.48 194.54C167.808 194.54 167.22 194.726 166.716 195.098C166.224 195.458 165.84 195.932 165.564 196.52C165.288 197.096 165.15 197.702 165.15 198.338C165.15 199.01 165.3 199.634 165.6 200.21C165.912 200.786 166.332 201.248 166.86 201.596C167.388 201.932 167.982 202.1 168.642 202.1C169.05 202.1 169.476 201.998 169.92 201.794C170.376 201.578 170.772 201.296 171.108 200.948C171.456 200.6 171.66 200.21 171.72 199.778ZM179.767 203.18C178.867 203.18 178.063 202.958 177.355 202.514C176.647 202.07 176.089 201.476 175.681 200.732C175.273 199.988 175.069 199.172 175.069 198.284C175.069 197.408 175.267 196.604 175.663 195.872C176.071 195.14 176.629 194.558 177.337 194.126C178.045 193.682 178.849 193.46 179.749 193.46C180.673 193.46 181.483 193.682 182.179 194.126C182.875 194.57 183.415 195.158 183.799 195.89C184.195 196.61 184.393 197.402 184.393 198.266C184.393 198.458 184.387 198.62 184.375 198.752H176.347C176.407 199.424 176.599 200.024 176.923 200.552C177.247 201.068 177.661 201.482 178.165 201.794C178.669 202.094 179.221 202.244 179.821 202.244C180.433 202.244 181.009 202.088 181.549 201.776C182.089 201.464 182.473 201.056 182.701 200.552L183.763 200.84C183.571 201.296 183.271 201.704 182.863 202.064C182.467 202.412 182.005 202.688 181.477 202.892C180.949 203.084 180.379 203.18 179.767 203.18ZM176.311 197.87H183.241C183.193 197.198 183.007 196.604 182.683 196.088C182.359 195.56 181.945 195.152 181.441 194.864C180.937 194.564 180.379 194.414 179.767 194.414C179.155 194.414 178.597 194.564 178.093 194.864C177.589 195.152 177.175 195.56 176.851 196.088C176.539 196.604 176.359 197.198 176.311 197.87ZM191.122 203V190.22H196.414C196.966 190.22 197.47 190.334 197.926 190.562C198.394 190.79 198.796 191.102 199.132 191.498C199.48 191.882 199.744 192.314 199.924 192.794C200.116 193.262 200.212 193.742 200.212 194.234C200.212 194.93 200.056 195.59 199.744 196.214C199.432 196.826 199 197.324 198.448 197.708C197.896 198.092 197.254 198.284 196.522 198.284H192.382V203H191.122ZM192.382 197.168H196.468C196.972 197.168 197.41 197.03 197.782 196.754C198.154 196.478 198.442 196.118 198.646 195.674C198.85 195.23 198.952 194.75 198.952 194.234C198.952 193.706 198.832 193.226 198.592 192.794C198.352 192.35 198.034 191.996 197.638 191.732C197.254 191.468 196.828 191.336 196.36 191.336H192.382V197.168ZM205.887 203.18C204.987 203.18 204.183 202.958 203.475 202.514C202.779 202.07 202.233 201.482 201.837 200.75C201.441 200.006 201.243 199.202 201.243 198.338C201.243 197.462 201.441 196.658 201.837 195.926C202.245 195.182 202.797 194.588 203.493 194.144C204.201 193.688 204.999 193.46 205.887 193.46C206.787 193.46 207.585 193.688 208.281 194.144C208.989 194.588 209.541 195.182 209.937 195.926C210.345 196.658 210.549 197.462 210.549 198.338C210.549 199.202 210.351 200.006 209.955 200.75C209.559 201.482 209.007 202.07 208.299 202.514C207.603 202.958 206.799 203.18 205.887 203.18ZM202.485 198.356C202.485 199.052 202.635 199.688 202.935 200.264C203.247 200.828 203.661 201.278 204.177 201.614C204.693 201.938 205.263 202.1 205.887 202.1C206.511 202.1 207.081 201.932 207.597 201.596C208.113 201.26 208.527 200.804 208.839 200.228C209.151 199.652 209.307 199.016 209.307 198.32C209.307 197.624 209.151 196.988 208.839 196.412C208.527 195.836 208.113 195.38 207.597 195.044C207.081 194.708 206.511 194.54 205.887 194.54C205.275 194.54 204.711 194.714 204.195 195.062C203.679 195.398 203.265 195.854 202.953 196.43C202.641 197.006 202.485 197.648 202.485 198.356ZM212.65 189.86H213.874V200.876C213.874 201.344 213.952 201.65 214.108 201.794C214.276 201.938 214.486 202.01 214.738 202.01C214.954 202.01 215.17 201.986 215.386 201.938C215.614 201.89 215.8 201.842 215.944 201.794L216.16 202.784C215.932 202.88 215.65 202.958 215.314 203.018C214.99 203.078 214.708 203.108 214.468 203.108C213.916 203.108 213.472 202.946 213.136 202.622C212.812 202.298 212.65 201.854 212.65 201.29V189.86ZM217.554 189.86H218.778V200.876C218.778 201.344 218.856 201.65 219.012 201.794C219.18 201.938 219.39 202.01 219.642 202.01C219.858 202.01 220.074 201.986 220.29 201.938C220.518 201.89 220.704 201.842 220.848 201.794L221.064 202.784C220.836 202.88 220.554 202.958 220.218 203.018C219.894 203.078 219.612 203.108 219.372 203.108C218.82 203.108 218.376 202.946 218.04 202.622C217.716 202.298 217.554 201.854 217.554 201.29V189.86ZM226.401 203.18C225.501 203.18 224.697 202.958 223.989 202.514C223.293 202.07 222.747 201.482 222.351 200.75C221.955 200.006 221.757 199.202 221.757 198.338C221.757 197.462 221.955 196.658 222.351 195.926C222.759 195.182 223.311 194.588 224.007 194.144C224.715 193.688 225.513 193.46 226.401 193.46C227.301 193.46 228.099 193.688 228.795 194.144C229.503 194.588 230.055 195.182 230.451 195.926C230.859 196.658 231.063 197.462 231.063 198.338C231.063 199.202 230.865 200.006 230.469 200.75C230.073 201.482 229.521 202.07 228.813 202.514C228.117 202.958 227.313 203.18 226.401 203.18ZM222.999 198.356C222.999 199.052 223.149 199.688 223.449 200.264C223.761 200.828 224.175 201.278 224.691 201.614C225.207 201.938 225.777 202.1 226.401 202.1C227.025 202.1 227.595 201.932 228.111 201.596C228.627 201.26 229.041 200.804 229.353 200.228C229.665 199.652 229.821 199.016 229.821 198.32C229.821 197.624 229.665 196.988 229.353 196.412C229.041 195.836 228.627 195.38 228.111 195.044C227.595 194.708 227.025 194.54 226.401 194.54C225.789 194.54 225.225 194.714 224.709 195.062C224.193 195.398 223.779 195.854 223.467 196.43C223.155 197.006 222.999 197.648 222.999 198.356ZM73.1147 221.772C73.1147 222.216 72.9587 222.6 72.6467 222.924C72.3347 223.236 71.9567 223.392 71.5127 223.392C71.0687 223.392 70.6847 223.236 70.3607 222.924C70.0487 222.6 69.8927 222.216 69.8927 221.772C69.8927 221.34 70.0487 220.968 70.3607 220.656C70.6847 220.332 71.0687 220.17 71.5127 220.17C71.9567 220.17 72.3347 220.332 72.6467 220.656C72.9587 220.968 73.1147 221.34 73.1147 221.772ZM86.602 228V215.22H87.862V226.884H95.242V228H86.602ZM100.701 228.18C99.8008 228.18 98.9968 227.958 98.2888 227.514C97.5808 227.07 97.0228 226.476 96.6148 225.732C96.2068 224.988 96.0028 224.172 96.0028 223.284C96.0028 222.408 96.2008 221.604 96.5968 220.872C97.0048 220.14 97.5628 219.558 98.2708 219.126C98.9788 218.682 99.7828 218.46 100.683 218.46C101.607 218.46 102.417 218.682 103.113 219.126C103.809 219.57 104.349 220.158 104.733 220.89C105.129 221.61 105.327 222.402 105.327 223.266C105.327 223.458 105.321 223.62 105.309 223.752H97.2808C97.3408 224.424 97.5328 225.024 97.8568 225.552C98.1808 226.068 98.5948 226.482 99.0988 226.794C99.6028 227.094 100.155 227.244 100.755 227.244C101.367 227.244 101.943 227.088 102.483 226.776C103.023 226.464 103.407 226.056 103.635 225.552L104.697 225.84C104.505 226.296 104.205 226.704 103.797 227.064C103.401 227.412 102.939 227.688 102.411 227.892C101.883 228.084 101.313 228.18 100.701 228.18ZM97.2448 222.87H104.175C104.127 222.198 103.941 221.604 103.617 221.088C103.293 220.56 102.879 220.152 102.375 219.864C101.871 219.564 101.313 219.414 100.701 219.414C100.089 219.414 99.5308 219.564 99.0268 219.864C98.5228 220.152 98.1088 220.56 97.7848 221.088C97.4728 221.604 97.2928 222.198 97.2448 222.87ZM111.283 228.18C110.371 228.18 109.561 227.958 108.853 227.514C108.145 227.058 107.587 226.464 107.179 225.732C106.771 224.988 106.567 224.172 106.567 223.284C106.567 222.396 106.765 221.592 107.161 220.872C107.557 220.14 108.109 219.558 108.817 219.126C109.525 218.682 110.341 218.46 111.265 218.46C112.141 218.46 112.909 218.664 113.569 219.072C114.241 219.468 114.745 220.008 115.081 220.692L113.893 221.07C113.629 220.59 113.257 220.218 112.777 219.954C112.309 219.678 111.787 219.54 111.211 219.54C110.575 219.54 109.999 219.702 109.483 220.026C108.979 220.35 108.571 220.8 108.259 221.376C107.959 221.94 107.809 222.576 107.809 223.284C107.809 223.992 107.965 224.634 108.277 225.21C108.589 225.786 109.003 226.248 109.519 226.596C110.035 226.932 110.605 227.1 111.229 227.1C111.637 227.1 112.033 227.028 112.417 226.884C112.801 226.74 113.131 226.548 113.407 226.308C113.683 226.056 113.869 225.786 113.965 225.498L115.171 225.858C115.003 226.302 114.727 226.704 114.343 227.064C113.959 227.412 113.503 227.688 112.975 227.892C112.447 228.084 111.883 228.18 111.283 228.18ZM124.978 228H123.754V222.762C123.754 220.638 123.034 219.576 121.594 219.576C121.126 219.576 120.67 219.696 120.226 219.936C119.782 220.164 119.386 220.482 119.038 220.89C118.702 221.286 118.462 221.742 118.318 222.258V228H117.094V214.86H118.318V220.746C118.69 220.05 119.206 219.498 119.866 219.09C120.538 218.67 121.252 218.46 122.008 218.46C122.728 218.46 123.304 218.634 123.736 218.982C124.168 219.318 124.48 219.792 124.672 220.404C124.876 221.004 124.978 221.706 124.978 222.51V228ZM131.638 228.18C130.738 228.18 129.934 227.958 129.226 227.514C128.518 227.07 127.96 226.476 127.552 225.732C127.144 224.988 126.94 224.172 126.94 223.284C126.94 222.408 127.138 221.604 127.534 220.872C127.942 220.14 128.5 219.558 129.208 219.126C129.916 218.682 130.72 218.46 131.62 218.46C132.544 218.46 133.354 218.682 134.05 219.126C134.746 219.57 135.286 220.158 135.67 220.89C136.066 221.61 136.264 222.402 136.264 223.266C136.264 223.458 136.258 223.62 136.246 223.752H128.218C128.278 224.424 128.47 225.024 128.794 225.552C129.118 226.068 129.532 226.482 130.036 226.794C130.54 227.094 131.092 227.244 131.692 227.244C132.304 227.244 132.88 227.088 133.42 226.776C133.96 226.464 134.344 226.056 134.572 225.552L135.634 225.84C135.442 226.296 135.142 226.704 134.734 227.064C134.338 227.412 133.876 227.688 133.348 227.892C132.82 228.084 132.25 228.18 131.638 228.18ZM128.182 222.87H135.112C135.064 222.198 134.878 221.604 134.554 221.088C134.23 220.56 133.816 220.152 133.312 219.864C132.808 219.564 132.25 219.414 131.638 219.414C131.026 219.414 130.468 219.564 129.964 219.864C129.46 220.152 129.046 220.56 128.722 221.088C128.41 221.604 128.23 222.198 128.182 222.87ZM73.1147 246.772C73.1147 247.216 72.9587 247.6 72.6467 247.924C72.3347 248.236 71.9567 248.392 71.5127 248.392C71.0687 248.392 70.6847 248.236 70.3607 247.924C70.0487 247.6 69.8927 247.216 69.8927 246.772C69.8927 246.34 70.0487 245.968 70.3607 245.656C70.6847 245.332 71.0687 245.17 71.5127 245.17C71.9567 245.17 72.3347 245.332 72.6467 245.656C72.9587 245.968 73.1147 246.34 73.1147 246.772ZM90.562 240.22H91.624L96.934 253H95.602L93.946 249.004H88.204L86.566 253H85.216L90.562 240.22ZM93.658 248.014L91.084 241.696L88.474 248.014H93.658ZM100.706 253L96.9084 243.622H98.1864L101.39 251.776L104.612 243.622H105.818L102.02 253H100.706ZM111.248 253.18C110.348 253.18 109.544 252.958 108.836 252.514C108.128 252.07 107.57 251.476 107.162 250.732C106.754 249.988 106.55 249.172 106.55 248.284C106.55 247.408 106.748 246.604 107.144 245.872C107.552 245.14 108.11 244.558 108.818 244.126C109.526 243.682 110.33 243.46 111.23 243.46C112.154 243.46 112.964 243.682 113.66 244.126C114.356 244.57 114.896 245.158 115.28 245.89C115.676 246.61 115.874 247.402 115.874 248.266C115.874 248.458 115.868 248.62 115.856 248.752H107.828C107.888 249.424 108.08 250.024 108.404 250.552C108.728 251.068 109.142 251.482 109.646 251.794C110.15 252.094 110.702 252.244 111.302 252.244C111.914 252.244 112.49 252.088 113.03 251.776C113.57 251.464 113.954 251.056 114.182 250.552L115.244 250.84C115.052 251.296 114.752 251.704 114.344 252.064C113.948 252.412 113.486 252.688 112.958 252.892C112.43 253.084 111.86 253.18 111.248 253.18ZM107.792 247.87H114.722C114.674 247.198 114.488 246.604 114.164 246.088C113.84 245.56 113.426 245.152 112.922 244.864C112.418 244.564 111.86 244.414 111.248 244.414C110.636 244.414 110.078 244.564 109.574 244.864C109.07 245.152 108.656 245.56 108.332 246.088C108.02 246.604 107.84 247.198 107.792 247.87ZM125.646 253H124.422V247.762C124.422 246.658 124.254 245.854 123.918 245.35C123.594 244.834 123.09 244.576 122.406 244.576C121.926 244.576 121.452 244.696 120.984 244.936C120.516 245.164 120.102 245.482 119.742 245.89C119.394 246.286 119.142 246.742 118.986 247.258V253H117.762V243.622H118.878V245.746C119.25 245.062 119.796 244.51 120.516 244.09C121.236 243.67 122.016 243.46 122.856 243.46C123.552 243.46 124.104 243.628 124.512 243.964C124.92 244.288 125.208 244.756 125.376 245.368C125.556 245.968 125.646 246.682 125.646 247.51V253ZM127.5 250.3C127.5 249.724 127.668 249.226 128.004 248.806C128.34 248.374 128.802 248.038 129.39 247.798C129.99 247.558 130.68 247.438 131.46 247.438C131.916 247.438 132.39 247.48 132.882 247.564C133.374 247.636 133.812 247.738 134.196 247.87V247.078C134.196 246.286 133.962 245.656 133.494 245.188C133.026 244.72 132.378 244.486 131.55 244.486C131.058 244.486 130.566 244.582 130.074 244.774C129.582 244.954 129.072 245.224 128.544 245.584L128.076 244.72C128.688 244.3 129.288 243.988 129.876 243.784C130.464 243.568 131.064 243.46 131.676 243.46C132.828 243.46 133.74 243.79 134.412 244.45C135.084 245.11 135.42 246.022 135.42 247.186V251.524C135.42 251.848 135.57 252.016 135.87 252.028V253C135.606 253.036 135.42 253.048 135.312 253.036C135.012 253.024 134.784 252.928 134.628 252.748C134.472 252.568 134.388 252.376 134.376 252.172L134.358 251.488C133.938 252.028 133.392 252.448 132.72 252.748C132.048 253.036 131.364 253.18 130.668 253.18C130.056 253.18 129.51 253.054 129.03 252.802C128.55 252.538 128.172 252.19 127.896 251.758C127.632 251.314 127.5 250.828 127.5 250.3ZM133.782 251.02C134.058 250.696 134.196 250.396 134.196 250.12V248.752C133.368 248.428 132.504 248.266 131.604 248.266C130.728 248.266 130.02 248.44 129.48 248.788C128.94 249.136 128.67 249.61 128.67 250.21C128.67 250.726 128.868 251.194 129.264 251.614C129.672 252.034 130.236 252.244 130.956 252.244C131.544 252.244 132.09 252.13 132.594 251.902C133.11 251.674 133.506 251.38 133.782 251.02ZM73.1147 271.772C73.1147 272.216 72.9587 272.6 72.6467 272.924C72.3347 273.236 71.9567 273.392 71.5127 273.392C71.0687 273.392 70.6847 273.236 70.3607 272.924C70.0487 272.6 69.8927 272.216 69.8927 271.772C69.8927 271.34 70.0487 270.968 70.3607 270.656C70.6847 270.332 71.0687 270.17 71.5127 270.17C71.9567 270.17 72.3347 270.332 72.6467 270.656C72.9587 270.968 73.1147 271.34 73.1147 271.772ZM86.602 278V265.22H94.99V266.336H87.862V271.034H93.874V272.078H87.862V278H86.602ZM100.944 269.702C100.128 269.726 99.4081 269.954 98.7841 270.386C98.1721 270.818 97.7401 271.412 97.4881 272.168V278H96.2641V268.622H97.4161V270.872C97.7401 270.212 98.1661 269.678 98.6941 269.27C99.2341 268.862 99.8041 268.634 100.404 268.586C100.524 268.574 100.626 268.568 100.71 268.568C100.794 268.568 100.872 268.574 100.944 268.586V269.702ZM102.485 274.13V268.622H103.709V273.914C103.709 276.038 104.435 277.1 105.887 277.1C106.607 277.1 107.279 276.866 107.903 276.398C108.539 275.93 108.995 275.306 109.271 274.526V268.622H110.495V276.524C110.495 276.848 110.639 277.016 110.927 277.028V278C110.783 278.024 110.669 278.036 110.585 278.036C110.513 278.036 110.435 278.036 110.351 278.036C110.099 278.012 109.883 277.916 109.703 277.748C109.535 277.58 109.451 277.376 109.451 277.136L109.415 275.876C109.007 276.608 108.449 277.178 107.741 277.586C107.045 277.982 106.289 278.18 105.473 278.18C103.481 278.18 102.485 276.83 102.485 274.13ZM117.762 277.55C117.618 277.61 117.354 277.718 116.97 277.874C116.586 278.03 116.142 278.108 115.638 278.108C115.11 278.108 114.648 277.958 114.252 277.658C113.856 277.358 113.658 276.908 113.658 276.308V269.594H112.362V268.622H113.658V265.454H114.882V268.622H117.042V269.594H114.882V275.966C114.906 276.314 115.026 276.572 115.242 276.74C115.47 276.896 115.728 276.974 116.016 276.974C116.352 276.974 116.652 276.92 116.916 276.812C117.192 276.692 117.366 276.608 117.438 276.56L117.762 277.55ZM123.129 278.18C122.229 278.18 121.425 277.958 120.717 277.514C120.021 277.07 119.475 276.482 119.079 275.75C118.683 275.006 118.485 274.202 118.485 273.338C118.485 272.462 118.683 271.658 119.079 270.926C119.487 270.182 120.039 269.588 120.735 269.144C121.443 268.688 122.241 268.46 123.129 268.46C124.029 268.46 124.827 268.688 125.523 269.144C126.231 269.588 126.783 270.182 127.179 270.926C127.587 271.658 127.791 272.462 127.791 273.338C127.791 274.202 127.593 275.006 127.197 275.75C126.801 276.482 126.249 277.07 125.541 277.514C124.845 277.958 124.041 278.18 123.129 278.18ZM119.727 273.356C119.727 274.052 119.877 274.688 120.177 275.264C120.489 275.828 120.903 276.278 121.419 276.614C121.935 276.938 122.505 277.1 123.129 277.1C123.753 277.1 124.323 276.932 124.839 276.596C125.355 276.26 125.769 275.804 126.081 275.228C126.393 274.652 126.549 274.016 126.549 273.32C126.549 272.624 126.393 271.988 126.081 271.412C125.769 270.836 125.355 270.38 124.839 270.044C124.323 269.708 123.753 269.54 123.129 269.54C122.517 269.54 121.953 269.714 121.437 270.062C120.921 270.398 120.507 270.854 120.195 271.43C119.883 272.006 119.727 272.648 119.727 273.356ZM132.916 278.18C132.148 278.18 131.434 278.054 130.774 277.802C130.126 277.538 129.556 277.154 129.064 276.65L129.568 275.786C130.096 276.278 130.624 276.638 131.152 276.866C131.692 277.082 132.262 277.19 132.862 277.19C133.582 277.19 134.17 277.046 134.626 276.758C135.094 276.458 135.328 276.032 135.328 275.48C135.328 275.108 135.214 274.826 134.986 274.634C134.77 274.43 134.452 274.268 134.032 274.148C133.624 274.028 133.132 273.89 132.556 273.734C131.908 273.554 131.362 273.368 130.918 273.176C130.486 272.972 130.156 272.72 129.928 272.42C129.712 272.108 129.604 271.706 129.604 271.214C129.604 270.614 129.754 270.11 130.054 269.702C130.366 269.294 130.786 268.988 131.314 268.784C131.854 268.568 132.454 268.46 133.114 268.46C133.834 268.46 134.47 268.574 135.022 268.802C135.574 269.03 136.024 269.348 136.372 269.756L135.778 270.584C135.454 270.2 135.052 269.918 134.572 269.738C134.104 269.546 133.594 269.45 133.042 269.45C132.658 269.45 132.292 269.504 131.944 269.612C131.596 269.708 131.308 269.876 131.08 270.116C130.864 270.344 130.756 270.662 130.756 271.07C130.756 271.574 130.942 271.922 131.314 272.114C131.686 272.306 132.25 272.51 133.006 272.726C133.714 272.918 134.332 273.11 134.86 273.302C135.388 273.494 135.796 273.752 136.084 274.076C136.372 274.388 136.516 274.826 136.516 275.39C136.516 276.266 136.186 276.95 135.526 277.442C134.866 277.934 133.996 278.18 132.916 278.18ZM150.849 267.614C150.489 267.218 150.009 266.894 149.409 266.642C148.809 266.378 148.125 266.246 147.357 266.246C146.229 266.246 145.407 266.462 144.891 266.894C144.375 267.314 144.117 267.89 144.117 268.622C144.117 269.126 144.243 269.522 144.495 269.81C144.747 270.098 145.131 270.338 145.647 270.53C146.175 270.71 146.847 270.89 147.663 271.07C148.575 271.262 149.361 271.49 150.021 271.754C150.681 272.018 151.191 272.378 151.551 272.834C151.911 273.278 152.091 273.884 152.091 274.652C152.091 275.432 151.893 276.08 151.497 276.596C151.101 277.112 150.555 277.496 149.859 277.748C149.163 277.988 148.371 278.108 147.483 278.108C145.491 278.108 143.781 277.49 142.353 276.254L142.983 275.228C143.439 275.708 144.063 276.122 144.855 276.47C145.659 276.818 146.547 276.992 147.519 276.992C148.527 276.992 149.319 276.806 149.895 276.434C150.471 276.062 150.759 275.51 150.759 274.778C150.759 274.25 150.615 273.83 150.327 273.518C150.039 273.194 149.607 272.93 149.031 272.726C148.455 272.522 147.747 272.324 146.907 272.132C146.019 271.928 145.269 271.7 144.657 271.448C144.057 271.196 143.601 270.866 143.289 270.458C142.977 270.05 142.821 269.498 142.821 268.802C142.821 268.01 143.013 267.344 143.397 266.804C143.793 266.252 144.333 265.838 145.017 265.562C145.701 265.274 146.487 265.13 147.375 265.13C148.215 265.13 148.971 265.262 149.643 265.526C150.315 265.778 150.921 266.138 151.461 266.606L150.849 267.614ZM158.111 278.18C157.211 278.18 156.407 277.958 155.699 277.514C154.991 277.07 154.433 276.476 154.025 275.732C153.617 274.988 153.413 274.172 153.413 273.284C153.413 272.408 153.611 271.604 154.007 270.872C154.415 270.14 154.973 269.558 155.681 269.126C156.389 268.682 157.193 268.46 158.093 268.46C159.017 268.46 159.827 268.682 160.523 269.126C161.219 269.57 161.759 270.158 162.143 270.89C162.539 271.61 162.737 272.402 162.737 273.266C162.737 273.458 162.731 273.62 162.719 273.752H154.691C154.751 274.424 154.943 275.024 155.267 275.552C155.591 276.068 156.005 276.482 156.509 276.794C157.013 277.094 157.565 277.244 158.165 277.244C158.777 277.244 159.353 277.088 159.893 276.776C160.433 276.464 160.817 276.056 161.045 275.552L162.107 275.84C161.915 276.296 161.615 276.704 161.207 277.064C160.811 277.412 160.349 277.688 159.821 277.892C159.293 278.084 158.723 278.18 158.111 278.18ZM154.655 272.87H161.585C161.537 272.198 161.351 271.604 161.027 271.088C160.703 270.56 160.289 270.152 159.785 269.864C159.281 269.564 158.723 269.414 158.111 269.414C157.499 269.414 156.941 269.564 156.437 269.864C155.933 270.152 155.519 270.56 155.195 271.088C154.883 271.604 154.703 272.198 154.655 272.87ZM168.693 278.18C167.781 278.18 166.971 277.958 166.263 277.514C165.555 277.058 164.997 276.464 164.589 275.732C164.181 274.988 163.977 274.172 163.977 273.284C163.977 272.396 164.175 271.592 164.571 270.872C164.967 270.14 165.519 269.558 166.227 269.126C166.935 268.682 167.751 268.46 168.675 268.46C169.551 268.46 170.319 268.664 170.979 269.072C171.651 269.468 172.155 270.008 172.491 270.692L171.303 271.07C171.039 270.59 170.667 270.218 170.187 269.954C169.719 269.678 169.197 269.54 168.621 269.54C167.985 269.54 167.409 269.702 166.893 270.026C166.389 270.35 165.981 270.8 165.669 271.376C165.369 271.94 165.219 272.576 165.219 273.284C165.219 273.992 165.375 274.634 165.687 275.21C165.999 275.786 166.413 276.248 166.929 276.596C167.445 276.932 168.015 277.1 168.639 277.1C169.047 277.1 169.443 277.028 169.827 276.884C170.211 276.74 170.541 276.548 170.817 276.308C171.093 276.056 171.279 275.786 171.375 275.498L172.581 275.858C172.413 276.302 172.137 276.704 171.753 277.064C171.369 277.412 170.913 277.688 170.385 277.892C169.857 278.084 169.293 278.18 168.693 278.18ZM178.412 278.18C177.512 278.18 176.708 277.958 176 277.514C175.304 277.07 174.758 276.482 174.362 275.75C173.966 275.006 173.768 274.202 173.768 273.338C173.768 272.462 173.966 271.658 174.362 270.926C174.77 270.182 175.322 269.588 176.018 269.144C176.726 268.688 177.524 268.46 178.412 268.46C179.312 268.46 180.11 268.688 180.806 269.144C181.514 269.588 182.066 270.182 182.462 270.926C182.87 271.658 183.074 272.462 183.074 273.338C183.074 274.202 182.876 275.006 182.48 275.75C182.084 276.482 181.532 277.07 180.824 277.514C180.128 277.958 179.324 278.18 178.412 278.18ZM175.01 273.356C175.01 274.052 175.16 274.688 175.46 275.264C175.772 275.828 176.186 276.278 176.702 276.614C177.218 276.938 177.788 277.1 178.412 277.1C179.036 277.1 179.606 276.932 180.122 276.596C180.638 276.26 181.052 275.804 181.364 275.228C181.676 274.652 181.832 274.016 181.832 273.32C181.832 272.624 181.676 271.988 181.364 271.412C181.052 270.836 180.638 270.38 180.122 270.044C179.606 269.708 179.036 269.54 178.412 269.54C177.8 269.54 177.236 269.714 176.72 270.062C176.204 270.398 175.79 270.854 175.478 271.43C175.166 272.006 175.01 272.648 175.01 273.356ZM188.199 278.18C187.431 278.18 186.717 278.054 186.057 277.802C185.409 277.538 184.839 277.154 184.347 276.65L184.851 275.786C185.379 276.278 185.907 276.638 186.435 276.866C186.975 277.082 187.545 277.19 188.145 277.19C188.865 277.19 189.453 277.046 189.909 276.758C190.377 276.458 190.611 276.032 190.611 275.48C190.611 275.108 190.497 274.826 190.269 274.634C190.053 274.43 189.735 274.268 189.315 274.148C188.907 274.028 188.415 273.89 187.839 273.734C187.191 273.554 186.645 273.368 186.201 273.176C185.769 272.972 185.439 272.72 185.211 272.42C184.995 272.108 184.887 271.706 184.887 271.214C184.887 270.614 185.037 270.11 185.337 269.702C185.649 269.294 186.069 268.988 186.597 268.784C187.137 268.568 187.737 268.46 188.397 268.46C189.117 268.46 189.753 268.574 190.305 268.802C190.857 269.03 191.307 269.348 191.655 269.756L191.061 270.584C190.737 270.2 190.335 269.918 189.855 269.738C189.387 269.546 188.877 269.45 188.325 269.45C187.941 269.45 187.575 269.504 187.227 269.612C186.879 269.708 186.591 269.876 186.363 270.116C186.147 270.344 186.039 270.662 186.039 271.07C186.039 271.574 186.225 271.922 186.597 272.114C186.969 272.306 187.533 272.51 188.289 272.726C188.997 272.918 189.615 273.11 190.143 273.302C190.671 273.494 191.079 273.752 191.367 274.076C191.655 274.388 191.799 274.826 191.799 275.39C191.799 276.266 191.469 276.95 190.809 277.442C190.149 277.934 189.279 278.18 188.199 278.18Z" fill="black"/>
<ellipse cx="148.395" cy="283.405" rx="2.98828" ry="2.8743" fill="#DFDFDF"/>
<ellipse cx="148.395" cy="259.261" rx="2.98828" ry="2.87428" fill="#DFDFDF"/>
<path d="M151.383 233.968C151.383 235.555 150.045 236.842 148.395 236.842C146.744 236.842 145.406 235.555 145.406 233.968C145.406 232.38 146.744 231.093 148.395 231.093C150.045 231.093 151.383 232.38 151.383 233.968Z" fill="#DFDFDF"/>
<path d="M144.631 88.2109H140.112L139.087 91H138.205L141.972 81.0469H142.771L146.538 91H145.663L144.631 88.2109ZM140.372 87.4932H144.364L142.368 82.0723L140.372 87.4932ZM147.488 87.2334C147.488 86.0758 147.743 85.1598 148.254 84.4854C148.769 83.8063 149.466 83.4668 150.346 83.4668C151.353 83.4668 152.118 83.8678 152.643 84.6699L152.684 83.6035H153.449V90.8496C153.449 91.8021 153.183 92.5563 152.649 93.1123C152.116 93.6683 151.394 93.9463 150.482 93.9463C149.967 93.9463 149.475 93.8301 149.006 93.5977C148.541 93.3698 148.174 93.0645 147.905 92.6816L148.363 92.1895C148.942 92.9004 149.63 93.2559 150.428 93.2559C151.111 93.2559 151.645 93.0531 152.027 92.6475C152.41 92.2464 152.608 91.6882 152.622 90.9727V90.043C152.098 90.7721 151.335 91.1367 150.332 91.1367C149.475 91.1367 148.787 90.7949 148.268 90.1113C147.748 89.4277 147.488 88.5049 147.488 87.3428V87.2334ZM148.315 87.377C148.315 88.3203 148.505 89.0654 148.883 89.6123C149.261 90.1546 149.794 90.4258 150.482 90.4258C151.49 90.4258 152.203 89.9746 152.622 89.0723V85.6338C152.431 85.1598 152.155 84.7998 151.795 84.5537C151.435 84.3031 151.002 84.1777 150.496 84.1777C149.808 84.1777 149.272 84.4489 148.89 84.9912C148.507 85.529 148.315 86.3242 148.315 87.377ZM159 84.3008C158.827 84.2689 158.642 84.2529 158.446 84.2529C157.936 84.2529 157.503 84.3965 157.147 84.6836C156.797 84.9661 156.546 85.3786 156.396 85.9209V91H155.582V83.6035H156.382L156.396 84.7793C156.828 83.9043 157.523 83.4668 158.48 83.4668C158.708 83.4668 158.888 83.4964 159.021 83.5557L159 84.3008ZM163.026 91.1367C162.397 91.1367 161.828 90.9818 161.317 90.6719C160.812 90.362 160.417 89.9313 160.135 89.3799C159.852 88.8239 159.711 88.2018 159.711 87.5137V87.2197C159.711 86.5088 159.848 85.8685 160.121 85.2988C160.399 84.7292 160.784 84.2826 161.276 83.959C161.769 83.6309 162.302 83.4668 162.876 83.4668C163.774 83.4668 164.485 83.7744 165.009 84.3896C165.537 85.0003 165.802 85.8366 165.802 86.8984V87.3564H160.524V87.5137C160.524 88.3522 160.764 89.0518 161.242 89.6123C161.725 90.1683 162.331 90.4463 163.061 90.4463C163.498 90.4463 163.883 90.3665 164.216 90.207C164.553 90.0475 164.858 89.7923 165.132 89.4414L165.645 89.8311C165.043 90.7015 164.17 91.1367 163.026 91.1367ZM162.876 84.1641C162.261 84.1641 161.741 84.3896 161.317 84.8408C160.898 85.292 160.643 85.8981 160.552 86.6592H164.988V86.5703C164.965 85.8594 164.763 85.2806 164.38 84.834C163.997 84.3874 163.496 84.1641 162.876 84.1641ZM167.066 87.2334C167.066 86.0758 167.322 85.1598 167.832 84.4854C168.347 83.8063 169.044 83.4668 169.924 83.4668C170.931 83.4668 171.697 83.8678 172.221 84.6699L172.262 83.6035H173.027V90.8496C173.027 91.8021 172.761 92.5563 172.228 93.1123C171.694 93.6683 170.972 93.9463 170.061 93.9463C169.546 93.9463 169.053 93.8301 168.584 93.5977C168.119 93.3698 167.752 93.0645 167.483 92.6816L167.941 92.1895C168.52 92.9004 169.208 93.2559 170.006 93.2559C170.689 93.2559 171.223 93.0531 171.605 92.6475C171.988 92.2464 172.187 91.6882 172.2 90.9727V90.043C171.676 90.7721 170.913 91.1367 169.91 91.1367C169.053 91.1367 168.365 90.7949 167.846 90.1113C167.326 89.4277 167.066 88.5049 167.066 87.3428V87.2334ZM167.894 87.377C167.894 88.3203 168.083 89.0654 168.461 89.6123C168.839 90.1546 169.372 90.4258 170.061 90.4258C171.068 90.4258 171.781 89.9746 172.2 89.0723V85.6338C172.009 85.1598 171.733 84.7998 171.373 84.5537C171.013 84.3031 170.58 84.1777 170.074 84.1777C169.386 84.1777 168.851 84.4489 168.468 84.9912C168.085 85.529 167.894 86.3242 167.894 87.377ZM179.829 91C179.747 90.7676 179.695 90.4235 179.672 89.9678C179.385 90.3415 179.018 90.6309 178.571 90.8359C178.129 91.0365 177.66 91.1367 177.163 91.1367C176.452 91.1367 175.876 90.9385 175.434 90.542C174.996 90.1455 174.777 89.6442 174.777 89.0381C174.777 88.318 175.076 87.7484 175.673 87.3291C176.274 86.9098 177.111 86.7002 178.182 86.7002H179.665V85.8594C179.665 85.3307 179.501 84.916 179.173 84.6152C178.849 84.3099 178.375 84.1572 177.751 84.1572C177.181 84.1572 176.71 84.3031 176.336 84.5947C175.962 84.8864 175.775 85.2373 175.775 85.6475L174.955 85.6406C174.955 85.0527 175.229 84.5446 175.775 84.1162C176.322 83.6833 176.994 83.4668 177.792 83.4668C178.617 83.4668 179.266 83.6742 179.74 84.0889C180.219 84.499 180.465 85.0732 180.479 85.8115V89.3115C180.479 90.027 180.554 90.5625 180.704 90.918V91H179.829ZM177.259 90.4121C177.806 90.4121 178.293 90.2799 178.722 90.0156C179.155 89.7513 179.469 89.3981 179.665 88.9561V87.3291H178.202C177.386 87.3382 176.748 87.4886 176.288 87.7803C175.828 88.0674 175.598 88.4639 175.598 88.9697C175.598 89.3844 175.75 89.7285 176.056 90.002C176.366 90.2754 176.767 90.4121 177.259 90.4121ZM186.084 84.3008C185.911 84.2689 185.726 84.2529 185.53 84.2529C185.02 84.2529 184.587 84.3965 184.231 84.6836C183.881 84.9661 183.63 85.3786 183.479 85.9209V91H182.666V83.6035H183.466L183.479 84.7793C183.912 83.9043 184.607 83.4668 185.564 83.4668C185.792 83.4668 185.972 83.4964 186.104 83.5557L186.084 84.3008ZM190.336 87.1924C190.336 86.4814 190.473 85.8411 190.746 85.2715C191.024 84.7018 191.414 84.2598 191.915 83.9453C192.421 83.6263 192.993 83.4668 193.631 83.4668C194.615 83.4668 195.413 83.8132 196.023 84.5059C196.634 85.194 196.939 86.1077 196.939 87.2471V87.418C196.939 88.1335 196.8 88.7783 196.522 89.3525C196.249 89.9222 195.862 90.362 195.36 90.6719C194.859 90.9818 194.287 91.1367 193.645 91.1367C192.665 91.1367 191.867 90.7926 191.252 90.1045C190.641 89.4118 190.336 88.4958 190.336 87.3564V87.1924ZM191.156 87.418C191.156 88.3021 191.384 89.029 191.84 89.5986C192.3 90.1637 192.902 90.4463 193.645 90.4463C194.383 90.4463 194.98 90.1637 195.436 89.5986C195.896 89.029 196.126 88.2793 196.126 87.3496V87.1924C196.126 86.6273 196.021 86.11 195.812 85.6406C195.602 85.1712 195.308 84.8089 194.93 84.5537C194.551 84.2939 194.118 84.1641 193.631 84.1641C192.902 84.1641 192.307 84.4512 191.847 85.0254C191.386 85.5951 191.156 86.3424 191.156 87.2676V87.418ZM204.589 87.377C204.589 88.5299 204.334 89.446 203.823 90.125C203.313 90.7995 202.627 91.1367 201.766 91.1367C200.736 91.1367 199.956 90.7539 199.428 89.9883L199.394 91H198.628V80.5H199.441V84.6768C199.961 83.8701 200.731 83.4668 201.752 83.4668C202.627 83.4668 203.317 83.8018 203.823 84.4717C204.334 85.137 204.589 86.0645 204.589 87.2539V87.377ZM203.769 87.2334C203.769 86.2581 203.579 85.5062 203.201 84.9775C202.823 84.4443 202.29 84.1777 201.602 84.1777C201.077 84.1777 200.633 84.3076 200.269 84.5674C199.904 84.8226 199.628 85.1986 199.441 85.6953V89.0312C199.852 89.9609 200.576 90.4258 201.615 90.4258C202.29 90.4258 202.816 90.1592 203.194 89.626C203.577 89.0928 203.769 88.2952 203.769 87.2334ZM207.282 83.6035V91.8818C207.282 92.5654 207.118 93.0872 206.79 93.4473C206.462 93.8073 205.979 93.9873 205.341 93.9873C205.095 93.9873 204.855 93.944 204.623 93.8574L204.637 93.1807C204.837 93.2399 205.042 93.2695 205.252 93.2695C206.063 93.2695 206.469 92.8024 206.469 91.8682V83.6035H207.282ZM206.879 80.9102C207.057 80.9102 207.196 80.9648 207.296 81.0742C207.396 81.179 207.446 81.3089 207.446 81.4639C207.446 81.6188 207.396 81.7487 207.296 81.8535C207.196 81.9583 207.057 82.0107 206.879 82.0107C206.706 82.0107 206.569 81.9583 206.469 81.8535C206.373 81.7487 206.325 81.6188 206.325 81.4639C206.325 81.3089 206.373 81.179 206.469 81.0742C206.569 80.9648 206.706 80.9102 206.879 80.9102ZM212.464 91.1367C211.835 91.1367 211.265 90.9818 210.755 90.6719C210.249 90.362 209.855 89.9313 209.572 89.3799C209.29 88.8239 209.148 88.2018 209.148 87.5137V87.2197C209.148 86.5088 209.285 85.8685 209.559 85.2988C209.837 84.7292 210.222 84.2826 210.714 83.959C211.206 83.6309 211.739 83.4668 212.313 83.4668C213.211 83.4668 213.922 83.7744 214.446 84.3896C214.975 85.0003 215.239 85.8366 215.239 86.8984V87.3564H209.962V87.5137C209.962 88.3522 210.201 89.0518 210.68 89.6123C211.163 90.1683 211.769 90.4463 212.498 90.4463C212.936 90.4463 213.321 90.3665 213.653 90.207C213.991 90.0475 214.296 89.7923 214.569 89.4414L215.082 89.8311C214.48 90.7015 213.608 91.1367 212.464 91.1367ZM212.313 84.1641C211.698 84.1641 211.179 84.3896 210.755 84.8408C210.336 85.292 210.08 85.8981 209.989 86.6592H214.426V86.5703C214.403 85.8594 214.2 85.2806 213.817 84.834C213.435 84.3874 212.933 84.1641 212.313 84.1641ZM218.104 81.71V83.6035H219.635V84.2734H218.104V89.2021C218.104 89.6123 218.176 89.9176 218.322 90.1182C218.473 90.3187 218.721 90.4189 219.067 90.4189C219.204 90.4189 219.425 90.3962 219.73 90.3506L219.765 91.0205C219.55 91.098 219.259 91.1367 218.89 91.1367C218.329 91.1367 217.921 90.9749 217.666 90.6514C217.411 90.3232 217.283 89.8424 217.283 89.209V84.2734H215.923V83.6035H217.283V81.71H218.104ZM220.742 87.1924C220.742 86.4814 220.879 85.8411 221.152 85.2715C221.43 84.7018 221.82 84.2598 222.321 83.9453C222.827 83.6263 223.399 83.4668 224.037 83.4668C225.021 83.4668 225.819 83.8132 226.43 84.5059C227.04 85.194 227.346 86.1077 227.346 87.2471V87.418C227.346 88.1335 227.207 88.7783 226.929 89.3525C226.655 89.9222 226.268 90.362 225.767 90.6719C225.265 90.9818 224.693 91.1367 224.051 91.1367C223.071 91.1367 222.273 90.7926 221.658 90.1045C221.048 89.4118 220.742 88.4958 220.742 87.3564V87.1924ZM221.562 87.418C221.562 88.3021 221.79 89.029 222.246 89.5986C222.706 90.1637 223.308 90.4463 224.051 90.4463C224.789 90.4463 225.386 90.1637 225.842 89.5986C226.302 89.029 226.532 88.2793 226.532 87.3496V87.1924C226.532 86.6273 226.427 86.11 226.218 85.6406C226.008 85.1712 225.714 84.8089 225.336 84.5537C224.958 84.2939 224.525 84.1641 224.037 84.1641C223.308 84.1641 222.713 84.4512 222.253 85.0254C221.793 85.5951 221.562 86.3424 221.562 87.2676V87.418Z" fill="black" fill-opacity="0.5"/>
<g filter="url(#filter2_d)">
<rect x="272" y="382" width="108" height="39" rx="5" fill="#E73232"/>
</g>
<path d="M295.219 402.395H291.715V405.02H295.811V406.203H290.232V397.672H295.77V398.867H291.715V401.223H295.219V402.395ZM298.395 406.203H296.971V397.203H298.395V406.203ZM301.465 406.203H300.041V399.864H301.465V406.203ZM299.953 398.217C299.953 397.998 300.021 397.817 300.158 397.672C300.299 397.528 300.498 397.455 300.756 397.455C301.014 397.455 301.213 397.528 301.354 397.672C301.494 397.817 301.564 397.998 301.564 398.217C301.564 398.432 301.494 398.612 301.354 398.756C301.213 398.897 301.014 398.967 300.756 398.967C300.498 398.967 300.299 398.897 300.158 398.756C300.021 398.612 299.953 398.432 299.953 398.217ZM304.359 399.864L304.4 400.526C304.846 400.006 305.455 399.746 306.229 399.746C307.076 399.746 307.656 400.071 307.969 400.719C308.43 400.071 309.078 399.746 309.914 399.746C310.613 399.746 311.133 399.94 311.473 400.326C311.816 400.713 311.992 401.283 312 402.037V406.203H310.576V402.078C310.576 401.676 310.488 401.381 310.312 401.194C310.137 401.006 309.846 400.912 309.439 400.912C309.115 400.912 308.85 401 308.643 401.176C308.439 401.348 308.297 401.574 308.215 401.856L308.221 406.203H306.797V402.031C306.777 401.285 306.396 400.912 305.654 400.912C305.084 400.912 304.68 401.145 304.441 401.61V406.203H303.018V399.864H304.359ZM314.977 406.203H313.553V399.864H314.977V406.203ZM313.465 398.217C313.465 397.998 313.533 397.817 313.67 397.672C313.811 397.528 314.01 397.455 314.268 397.455C314.525 397.455 314.725 397.528 314.865 397.672C315.006 397.817 315.076 397.998 315.076 398.217C315.076 398.432 315.006 398.612 314.865 398.756C314.725 398.897 314.525 398.967 314.268 398.967C314.01 398.967 313.811 398.897 313.67 398.756C313.533 398.612 313.465 398.432 313.465 398.217ZM317.854 399.864L317.895 400.596C318.363 400.03 318.979 399.746 319.74 399.746C321.061 399.746 321.732 400.502 321.756 402.014V406.203H320.332V402.096C320.332 401.694 320.244 401.397 320.068 401.205C319.896 401.01 319.613 400.912 319.219 400.912C318.645 400.912 318.217 401.172 317.936 401.692V406.203H316.512V399.864H317.854ZM327 406.203C326.938 406.082 326.883 405.885 326.836 405.612C326.383 406.084 325.828 406.321 325.172 406.321C324.535 406.321 324.016 406.139 323.613 405.776C323.211 405.412 323.01 404.963 323.01 404.428C323.01 403.752 323.26 403.235 323.76 402.875C324.264 402.512 324.982 402.33 325.916 402.33H326.789V401.914C326.789 401.586 326.697 401.324 326.514 401.129C326.33 400.93 326.051 400.83 325.676 400.83C325.352 400.83 325.086 400.912 324.879 401.076C324.672 401.237 324.568 401.442 324.568 401.692H323.145C323.145 401.344 323.26 401.02 323.49 400.719C323.721 400.414 324.033 400.176 324.428 400.004C324.826 399.832 325.27 399.746 325.758 399.746C326.5 399.746 327.092 399.934 327.533 400.309C327.975 400.68 328.201 401.203 328.213 401.879V404.739C328.213 405.309 328.293 405.764 328.453 406.104V406.203H327ZM325.436 405.178C325.717 405.178 325.98 405.11 326.227 404.973C326.477 404.836 326.664 404.653 326.789 404.422V403.227H326.021C325.494 403.227 325.098 403.319 324.832 403.502C324.566 403.686 324.434 403.946 324.434 404.281C324.434 404.555 324.523 404.774 324.703 404.938C324.887 405.098 325.131 405.178 325.436 405.178ZM333.023 401.164C332.836 401.133 332.643 401.117 332.443 401.117C331.791 401.117 331.352 401.367 331.125 401.867V406.203H329.701V399.864H331.061L331.096 400.573C331.439 400.022 331.916 399.746 332.525 399.746C332.729 399.746 332.896 399.774 333.029 399.828L333.023 401.164ZM338.531 405.02H342.404V406.203H337.049V397.672H338.531V405.02ZM344.918 406.203H343.494V399.864H344.918V406.203ZM343.406 398.217C343.406 397.998 343.475 397.817 343.611 397.672C343.752 397.528 343.951 397.455 344.209 397.455C344.467 397.455 344.666 397.528 344.807 397.672C344.947 397.817 345.018 397.998 345.018 398.217C345.018 398.432 344.947 398.612 344.807 398.756C344.666 398.897 344.467 398.967 344.209 398.967C343.951 398.967 343.752 398.897 343.611 398.756C343.475 398.612 343.406 398.432 343.406 398.217ZM350.027 404.481C350.027 404.227 349.922 404.033 349.711 403.901C349.504 403.768 349.158 403.651 348.674 403.549C348.189 403.448 347.785 403.319 347.461 403.162C346.75 402.819 346.395 402.321 346.395 401.668C346.395 401.121 346.625 400.664 347.086 400.297C347.547 399.93 348.133 399.746 348.844 399.746C349.602 399.746 350.213 399.934 350.678 400.309C351.146 400.684 351.381 401.17 351.381 401.768H349.957C349.957 401.494 349.855 401.268 349.652 401.088C349.449 400.905 349.18 400.813 348.844 400.813C348.531 400.813 348.275 400.885 348.076 401.03C347.881 401.174 347.783 401.367 347.783 401.61C347.783 401.828 347.875 401.998 348.059 402.119C348.242 402.24 348.613 402.364 349.172 402.489C349.73 402.61 350.168 402.756 350.484 402.928C350.805 403.096 351.041 403.299 351.193 403.537C351.35 403.776 351.428 404.065 351.428 404.405C351.428 404.975 351.191 405.438 350.719 405.793C350.246 406.145 349.627 406.321 348.861 406.321C348.342 406.321 347.879 406.227 347.473 406.039C347.066 405.852 346.75 405.594 346.523 405.266C346.297 404.938 346.184 404.584 346.184 404.205H347.566C347.586 404.541 347.713 404.801 347.947 404.985C348.182 405.164 348.492 405.254 348.879 405.254C349.254 405.254 349.539 405.184 349.734 405.043C349.93 404.899 350.027 404.711 350.027 404.481ZM354.457 398.323V399.864H355.576V400.918H354.457V404.457C354.457 404.699 354.504 404.875 354.598 404.985C354.695 405.09 354.867 405.143 355.113 405.143C355.277 405.143 355.443 405.123 355.611 405.084V406.186C355.287 406.276 354.975 406.321 354.674 406.321C353.58 406.321 353.033 405.717 353.033 404.51V400.918H351.99V399.864H353.033V398.323H354.457ZM360.457 406.203C360.395 406.082 360.34 405.885 360.293 405.612C359.84 406.084 359.285 406.321 358.629 406.321C357.992 406.321 357.473 406.139 357.07 405.776C356.668 405.412 356.467 404.963 356.467 404.428C356.467 403.752 356.717 403.235 357.217 402.875C357.721 402.512 358.439 402.33 359.373 402.33H360.246V401.914C360.246 401.586 360.154 401.324 359.971 401.129C359.787 400.93 359.508 400.83 359.133 400.83C358.809 400.83 358.543 400.912 358.336 401.076C358.129 401.237 358.025 401.442 358.025 401.692H356.602C356.602 401.344 356.717 401.02 356.947 400.719C357.178 400.414 357.49 400.176 357.885 400.004C358.283 399.832 358.727 399.746 359.215 399.746C359.957 399.746 360.549 399.934 360.99 400.309C361.432 400.68 361.658 401.203 361.67 401.879V404.739C361.67 405.309 361.75 405.764 361.91 406.104V406.203H360.457ZM358.893 405.178C359.174 405.178 359.438 405.11 359.684 404.973C359.934 404.836 360.121 404.653 360.246 404.422V403.227H359.479C358.951 403.227 358.555 403.319 358.289 403.502C358.023 403.686 357.891 403.946 357.891 404.281C357.891 404.555 357.98 404.774 358.16 404.938C358.344 405.098 358.588 405.178 358.893 405.178Z" fill="white"/>
<rect x="260" y="77" width="22" height="19" rx="2" fill="#7B9CDA"/>
<line x1="264.953" y1="86.5" x2="276.953" y2="86.5" stroke="white"/>
<line x1="271" y1="92.0227" x2="271" y2="80.9773" stroke="white"/>
<defs>
<filter id="filter0_d" x="41" y="60.9351" width="314" height="354.065" filterUnits="userSpaceOnUse" color-interpolation-filters="sRGB">
<feFlood flood-opacity="0" result="BackgroundImageFix"/>
<feColorMatrix in="SourceAlpha" type="matrix" values="0 0 0 0 0 0 0 0 0 0 0 0 0 0 0 0 0 0 127 0"/>
<feOffset dy="4"/>
<feGaussianBlur stdDeviation="2"/>
<feColorMatrix type="matrix" values="0 0 0 0 0 0 0 0 0 0 0 0 0 0 0 0 0 0 0.25 0"/>
<feBlend mode="normal" in2="BackgroundImageFix" result="effect1_dropShadow"/>
<feBlend mode="normal" in="SourceGraphic" in2="effect1_dropShadow" result="shape"/>
</filter>
<filter id="filter1_d" x="115.635" y="8.85999" width="155.965" height="24.974" filterUnits="userSpaceOnUse" color-interpolation-filters="sRGB">
<feFlood flood-opacity="0" result="BackgroundImageFix"/>
<feColorMatrix in="SourceAlpha" type="matrix" values="0 0 0 0 0 0 0 0 0 0 0 0 0 0 0 0 0 0 127 0"/>
<feOffset dy="4"/>
<feGaussianBlur stdDeviation="2"/>
<feColorMatrix type="matrix" values="0 0 0 0 0 0 0 0 0 0 0 0 0 0 0 0 0 0 0.25 0"/>
<feBlend mode="normal" in2="BackgroundImageFix" result="effect1_dropShadow"/>
<feBlend mode="normal" in="SourceGraphic" in2="effect1_dropShadow" result="shape"/>
</filter>
<filter id="filter2_d" x="268" y="382" width="116" height="47" filterUnits="userSpaceOnUse" color-interpolation-filters="sRGB">
<feFlood flood-opacity="0" result="BackgroundImageFix"/>
<feColorMatrix in="SourceAlpha" type="matrix" values="0 0 0 0 0 0 0 0 0 0 0 0 0 0 0 0 0 0 127 0"/>
<feOffset dy="4"/>
<feGaussianBlur stdDeviation="2"/>
<feColorMatrix type="matrix" values="0 0 0 0 0 0 0 0 0 0 0 0 0 0 0 0 0 0 0.25 0"/>
<feBlend mode="normal" in2="BackgroundImageFix" result="effect1_dropShadow"/>
<feBlend mode="normal" in="SourceGraphic" in2="effect1_dropShadow" result="shape"/>
</filter>
<linearGradient id="paint0_linear" x1="265.62" y1="403.6" x2="80.56" y2="62.36" gradientUnits="userSpaceOnUse">
<stop stop-color="#4782DA"/>
<stop offset="0.346875" stop-color="#3E71BC" stop-opacity="0.825"/>
<stop offset="0.669792" stop-color="#113455" stop-opacity="0.460417"/>
<stop offset="1" stop-color="#C4C4C4" stop-opacity="0"/>
</linearGradient>
</defs>
</svg>
